<svg width="280" height="125" viewBox="0 0 280 125" fill="none" xmlns="http://www.w3.org/2000/svg">
<path d="M87.4837 71.7287C88.3046 71.8313 87.5863 74.8072 86.868 74.8072H64.2924C63.5741 74.8072 63.1636 71.8313 63.6767 71.7287C67.2683 71.0104 69.4232 69.3686 69.4232 63.9299V44.2276C69.4232 35.6078 65.1134 33.6581 59.5721 33.6581C55.7753 33.6581 49.4131 34.9921 49.4131 37.5575V63.9299C49.4131 69.8816 52.7994 71.4209 55.57 71.7287C56.391 71.8313 55.6727 74.8072 54.9543 74.8072H33.3023C32.584 74.8072 32.0709 71.8313 32.6866 71.7287C36.2782 71.113 38.4331 69.3686 38.4331 63.9299V44.2276C38.4331 35.6078 34.5337 33.6581 28.6846 33.6581C24.7852 33.6581 18.423 34.8895 18.423 37.5575V63.9299C18.423 69.3686 21.1936 71.2156 24.5799 71.7287C25.2983 71.8313 24.7852 74.8072 23.9642 74.8072H1.08083C0.259898 74.8072 -0.458415 71.8313 0.362514 71.7287C3.441 71.3183 7.44303 69.8816 7.44303 63.9299V39.302C7.44303 34.3764 4.77501 33.2477 0.46513 32.7346C-0.355799 32.632 0.0546654 29.9639 0.875595 29.7587L17.089 25.2436C18.3204 24.9357 18.8334 25.7567 18.8334 26.7828C18.8334 29.6561 19.6544 30.7849 21.2962 30.0665C25.5035 28.2195 30.2238 25.2436 35.9703 25.2436C41.6142 25.2436 45.3084 27.9116 47.3607 31.4006C53.1073 28.1168 60.7009 25.2436 66.7552 25.2436C76.709 25.2436 80.4032 32.9398 80.4032 39.6099V63.9299C80.4032 69.8816 84.4052 71.3183 87.4837 71.7287ZM113.856 76.4491C104.21 76.4491 101.439 69.0607 101.439 62.5959V39.9177C101.439 34.7869 97.4375 33.3503 94.4616 32.9398C93.7433 32.8372 94.0511 30.2718 94.8721 30.0665L111.188 25.2436C112.419 24.8331 113.343 25.8593 113.035 27.0907C112.009 31.1953 112.419 35.5052 112.419 38.5837V59.2095C112.419 65.5718 114.472 68.5476 119.91 68.5476C125.041 68.5476 134.071 67.2136 134.071 61.1593V39.9177C134.071 34.7869 130.069 33.3503 127.094 32.9398C126.375 32.8372 126.683 30.2718 127.504 30.0665L143.82 25.2436C145.051 24.8331 145.975 25.8593 145.667 27.0907C144.641 31.1953 145.051 35.7104 145.051 38.7889V63.6221C145.051 72.3444 152.44 68.7529 153.876 69.6764C154.389 69.9843 154.595 70.7026 154.595 71.113C154.595 73.268 145.667 76.4491 141.357 76.4491C138.073 76.4491 135.713 69.1633 131.814 71.113C127.709 73.1654 120.423 76.4491 113.856 76.4491ZM177.273 76.4491C168.961 76.4491 160.239 73.0627 161.367 69.9843L163.009 65.6744C165.369 59.4148 169.577 70.1895 181.07 70.1895C191.023 70.1895 192.357 63.6221 184.456 59.62L171.013 52.8474C155.313 44.9459 160.546 25.2436 180.659 25.2436C188.253 25.2436 196.052 28.3221 194.82 31.2979L193.076 35.6078C190.613 41.7648 186.714 31.6058 176.555 31.6058C168.756 31.6058 167.319 38.1732 174.502 41.7648L188.458 48.8453C204.877 57.1572 199.335 76.4491 177.273 76.4491ZM217.498 15.5977C215.241 15.5977 209.7 10.7747 209.7 7.79883C209.7 4.82296 215.241 0 217.498 0C219.756 0 225.297 4.82296 225.297 7.79883C225.297 10.7747 219.756 15.5977 217.498 15.5977ZM206.313 74.8072C205.492 74.8072 204.774 71.8313 205.595 71.7287C208.776 71.3183 212.778 69.8816 212.778 63.9299V41.2517C212.778 34.9921 211.136 33.4529 205.8 32.7346C204.979 32.632 205.287 29.9639 206.005 29.7587L224.169 25.4488C225.195 25.2436 225.708 25.9619 225.4 27.2959C224.682 30.5796 223.758 36.634 223.758 43.304V63.9299C223.758 69.8816 227.76 71.3183 230.941 71.7287C231.659 71.8313 231.044 74.8072 230.223 74.8072H206.313ZM266.446 76.4491C255.261 76.4491 238.945 69.779 238.945 52.0264C238.945 40.1229 246.436 25.2436 266.446 25.2436C272.603 25.2436 280.71 27.1933 279.889 30.2718L278.966 33.8634C276.605 43.2014 271.68 32.0163 261.11 32.0163C253.619 32.0163 250.028 38.0706 250.028 46.2799C250.028 60.7488 262.137 68.5476 269.525 68.5476C270.551 68.5476 273.835 67.9319 278.658 66.8032C279.581 66.5979 280.402 69.3686 279.786 69.6764C275.784 71.8313 268.396 76.4491 266.446 76.4491Z" fill="black"/>
<path d="M1.46959 115.428C1.26333 115.428 1.18598 115.582 1.05707 115.711C1.05707 115.685 1.08285 115.685 1.08285 115.685C1.08285 115.685 0.59299 116.278 0.386733 116.278C0.541426 116.278 0 116.304 0 115.918C0 114.577 0.103129 113.004 0.103129 112.153C0.103129 111.87 0.309386 111.87 0.592991 111.87C0.567208 111.921 0.82503 112.05 0.82503 112.153C1.18598 112.463 2.26883 115.17 3.27434 115.453C3.60951 115.479 3.68685 115.531 3.68685 115.557C3.68685 115.582 3.60951 115.608 3.60951 115.608C3.60951 115.66 3.86733 115.685 5.25957 115.685L5.56895 115.557L5.62052 115.453C5.82678 115.453 5.98147 115.247 6.26507 115.247C7.32214 114.216 7.21901 114.035 7.21901 113.314C7.21901 113.262 6.98697 112.437 6.72915 112.437C6.75494 112.437 6.78072 112.437 6.78072 112.463C6.75494 112.488 6.67759 112.463 5.85256 112.024H5.82678C5.69787 112.024 4.87284 111.767 4.30563 111.767L3.19699 111.689C2.62978 111.689 1.39224 111.019 1.28911 110.942C0.799248 110.942 0 109.42 0 108.827C0 107.229 0.154693 107.719 0.154693 106.971C0.128911 106.971 0.128911 106.945 0.128911 106.92C0.128911 106.868 0.489862 106.378 0.489862 106.275C0.46408 106.275 0.438297 106.301 0.412515 106.301C0.386733 106.301 0.386733 106.301 0.386733 106.275C0.386733 106.223 0.541426 106.017 1.21176 105.347C1.41802 104.96 2.1657 104.676 2.26883 104.676C3.40325 104.496 3.27434 104.393 4.12515 104.393C4.61501 104.393 5.00175 104.444 5.56895 104.78C5.69787 104.78 6.05882 105.192 6.47133 105.192C6.44555 105.192 6.44555 105.166 6.44555 105.166C6.44555 105.115 6.96119 105.166 7.14167 104.831H7.11589C7.14167 104.831 7.60575 104.676 7.73466 104.548C8.01826 104.548 8.12139 104.651 8.22452 104.831V108.002C8.14717 108.028 8.30187 108.363 7.63153 108.363H7.65731C7.65731 108.338 7.27058 108.26 7.27058 107.822C7.27058 107.848 7.01276 107.255 6.85806 107.1C6.85806 106.662 6.11038 106.636 6.11038 106.094C5.69787 106.094 6.44555 105.94 5.05331 105.295C4.87284 105.115 4.58923 105.244 4.40876 105.089C4.02202 105.089 3.86733 105.166 3.68685 105.166C3.63529 105.166 3.55794 105.089 3.42903 105.089C3.06808 105.089 2.65557 105.476 2.47509 105.476C1.90788 105.94 1.80475 105.991 1.75319 106.249C1.75319 106.275 1.77897 106.275 1.77897 106.301C1.77897 106.43 1.49537 106.61 1.49537 107.048C1.49537 107.873 2.13992 108.183 2.3204 108.26C2.3204 108.234 2.34618 108.234 2.34618 108.234C2.39774 108.234 2.52666 108.57 4.0478 108.57C4.07359 108.544 4.12515 108.544 4.2025 108.544C4.97596 108.544 6.54868 109.059 6.8065 109.137C6.78072 109.137 6.78072 109.137 6.78072 109.163H6.8065C6.98698 109.163 7.86357 109.472 8.37921 110.452C8.48234 110.529 8.48234 111.045 8.6886 111.199L8.89486 112.463C8.89486 113.236 8.55969 113.571 8.55969 113.932C8.55969 114.139 8.48234 114.345 7.94092 115.092C7.9667 115.118 7.9667 115.118 7.9667 115.144C7.9667 115.221 7.47684 115.428 7.14167 115.763C7.06432 115.763 6.39398 116.511 4.84705 116.511C4.0478 116.511 3.81576 116.562 3.66107 116.562C3.42903 116.562 3.37747 116.485 2.37196 116.046C2.37196 116.072 2.37196 116.072 2.34618 116.072C2.21727 116.072 1.54693 115.428 1.46959 115.428V115.428ZM5.05331 116.175C4.97596 116.15 4.9244 116.278 4.84705 116.356C5.07909 116.356 5.05331 116.33 5.05331 116.175ZM2.52666 115.918C2.52666 116.046 2.83604 116.15 2.93917 116.15C2.81026 115.995 2.78448 115.918 2.52666 115.918ZM5.00175 116.098C4.97596 116.098 4.95018 116.124 4.95018 116.124C4.95018 116.15 4.97596 116.15 5.00175 116.15V116.098ZM5.92991 116.098V116.15H6.05882V116.098H5.92991ZM0.46408 116.046L0.489862 116.098C0.567208 116.021 0.515644 116.021 0.541426 116.021C0.515644 116.021 0.46408 116.021 0.46408 116.046V116.046ZM4.15093 116.021V116.046H4.2025L4.15093 116.021ZM6.26507 116.046L6.23929 116.021C6.21351 116.021 6.21351 116.046 6.21351 116.046C6.21351 116.072 6.21351 116.098 6.23929 116.098C6.23929 116.098 6.26507 116.072 6.26507 116.046ZM5.46583 115.918V116.021L5.51739 115.918H5.46583ZM6.41977 115.814C6.3682 115.814 6.3682 115.84 6.3682 115.892C6.3682 116.021 6.39398 116.021 6.44555 116.021C6.47133 116.021 6.49711 116.021 6.5229 115.969C6.5229 115.969 6.49711 115.892 6.41977 115.814V115.814ZM6.60024 115.634C6.62602 115.66 6.62602 115.685 6.67759 115.685L6.62602 115.608L6.60024 115.634ZM6.72915 115.505V115.557L6.78072 115.505H6.72915ZM7.21901 115.505C7.19323 115.505 7.16745 115.531 7.16745 115.531C7.16745 115.557 7.19323 115.557 7.21901 115.557C7.2448 115.557 7.2448 115.557 7.2448 115.531C7.2448 115.531 7.2448 115.505 7.21901 115.505ZM2.52666 115.428C2.50087 115.428 2.47509 115.453 2.47509 115.453C2.47509 115.479 2.50087 115.505 2.52666 115.505C2.55244 115.505 2.55244 115.479 2.55244 115.453C2.55244 115.453 2.55244 115.428 2.52666 115.428ZM7.32214 115.428L7.29636 115.402C7.27058 115.402 7.27058 115.428 7.27058 115.428C7.27058 115.453 7.27058 115.453 7.29636 115.453C7.29636 115.453 7.32214 115.453 7.32214 115.428ZM1.8821 114.603C1.85632 114.603 1.83054 114.603 1.83054 114.628H1.90788C1.90788 114.603 1.8821 114.603 1.8821 114.603ZM8.09561 114.396V114.448L8.14717 114.396H8.09561ZM8.37921 113.855C8.35343 113.906 8.35343 113.984 8.35343 114.035L8.37921 113.855ZM0.309386 113.674C0.283604 113.674 0.257822 113.7 0.257822 113.7C0.257822 113.726 0.283604 113.726 0.309386 113.726C0.309386 113.726 0.335169 113.726 0.335169 113.7L0.309386 113.674ZM0.335169 112.669C0.335169 112.772 0.309386 112.824 0.360951 112.824L0.412515 112.772C0.412515 112.721 0.360951 112.669 0.335169 112.669V112.669ZM8.58547 112.308V112.36H8.63704L8.58547 112.308ZM0.360951 112.205L0.46408 112.282H0.489862V112.153C0.438297 112.153 0.386733 112.153 0.360951 112.205V112.205ZM7.63153 110.194C7.63153 110.168 7.60575 110.168 7.60575 110.168C7.57997 110.168 7.57997 110.168 7.57997 110.194C7.57997 110.22 7.57997 110.245 7.60575 110.245C7.60575 110.245 7.63153 110.22 7.63153 110.194ZM7.78622 110.091C7.76044 110.091 7.73466 110.117 7.73466 110.117C7.73466 110.117 7.76044 110.142 7.78622 110.142V110.091ZM0.360951 109.343V109.42C0.438297 109.343 0.386733 109.343 0.412515 109.343H0.360951ZM0.335169 109.085C0.360951 109.163 0.360951 109.163 0.412515 109.163V109.085H0.335169ZM0.309386 107.564C0.309386 107.59 0.360951 107.616 0.360951 107.667L0.412515 107.616C0.412515 107.538 0.283604 107.564 0.309386 107.564V107.564ZM0.489862 106.662C0.46408 106.662 0.46408 106.687 0.46408 106.713C0.46408 106.739 0.46408 106.765 0.489862 106.765C0.515644 106.765 0.515644 106.739 0.515644 106.713C0.515644 106.687 0.515644 106.662 0.489862 106.662ZM2.03679 105.192C2.01101 105.192 1.98523 105.218 1.98523 105.244H2.06258C2.06258 105.218 2.03679 105.192 2.03679 105.192ZM2.06258 105.141C2.06258 105.115 2.06258 105.115 2.03679 105.115V105.192C2.06258 105.192 2.06258 105.166 2.06258 105.141V105.141ZM4.84705 105.012C4.82127 105.012 4.82127 105.012 4.82127 105.037C4.82127 105.063 4.82127 105.089 4.84705 105.089C4.87283 105.089 4.87284 105.063 4.87284 105.037C4.87284 105.012 4.87283 105.012 4.84705 105.012ZM7.94092 104.934C7.94092 104.986 7.94092 105.012 7.9667 105.012C7.99248 105.012 7.99248 104.986 8.01826 104.986C8.01826 104.934 7.99248 104.909 7.9667 104.883L7.94092 104.934ZM13.5099 116.382C13.1231 116.382 12.7364 116.175 12.2981 116.021L11.7309 115.453C11.7051 115.325 11.4473 114.912 11.4473 114.577C11.4473 111.045 11.5762 108.183 11.5762 105.966C11.5762 105.63 11.5504 105.45 11.2153 105.45C11.1379 105.45 11.0348 105.45 10.9317 105.476C10.8801 105.476 10.5707 105.45 10.5191 105.45C10.3644 105.45 10.184 105.527 9.87458 105.527C9.79724 105.321 9.4105 105.579 9.4105 105.115C9.4105 104.651 9.77145 104.676 9.97771 104.599C9.97771 104.599 10.0551 104.599 10.1582 104.651H10.8801C11.3442 104.548 11.3184 104.651 11.5246 104.444C11.602 101.84 11.4473 101.634 12.2723 101.634C12.2981 101.634 13.02 101.66 13.2005 101.66C13.5614 101.66 13.4325 101.505 14.5154 101.505H14.4896C14.5154 101.505 14.7474 101.583 14.7732 101.634C14.7732 103.851 14.7216 103.8 14.7216 104.444L14.9279 104.651H16.0881C16.1397 104.573 16.7842 104.573 16.9905 104.573H16.9647C16.9647 104.573 17.5061 104.676 17.5061 104.934C17.5061 105.269 17.4545 105.476 16.6295 105.476C16.1912 105.476 15.5209 105.45 14.9279 105.45C14.7474 105.45 14.6701 106.997 14.6701 107.641C14.6701 108.338 14.7216 108.673 14.7216 109.214C14.7216 110.684 14.6443 112.643 14.6443 113.185C14.6443 113.649 14.6701 114.087 14.7732 114.164V114.139C14.8248 114.139 14.7216 115.118 15.7529 115.118C16.3201 115.118 16.3459 115.118 16.7584 114.86C16.7326 114.86 17.1709 114.448 17.1709 114.345V114.319C17.1709 114.319 17.2999 113.494 17.8671 113.494C18.2022 113.494 18.3311 113.855 18.3311 114.087C18.3311 114.19 18.0475 114.371 18.0475 114.577C18.0475 115.144 16.9905 115.634 16.8873 115.918C16.81 115.866 16.6553 116.124 16.5522 116.124C15.9592 116.124 15.8561 116.382 15.2115 116.382H15.1857C14.6443 116.382 14.1544 116.485 14.1544 116.485C13.9482 116.485 13.6903 116.433 13.5099 116.382ZM13.2263 116.072C13.2263 116.046 13.2005 116.046 13.2005 116.046V116.124C13.2005 116.124 13.2263 116.098 13.2263 116.072ZM16.217 115.995C16.1912 115.995 16.1912 116.021 16.1912 116.046C16.1912 116.046 16.1912 116.072 16.217 116.072V115.995ZM13.0974 115.943C13.0716 115.943 13.0458 115.969 13.0458 115.995C13.0458 115.995 13.0716 116.021 13.0974 116.021C13.1231 116.021 13.1231 115.995 13.1231 115.995C13.1231 115.969 13.1231 115.943 13.0974 115.943ZM12.6591 115.737C12.6333 115.737 12.6075 115.763 12.6075 115.789C12.6075 115.789 12.6333 115.814 12.6591 115.814L12.6848 115.789C12.6848 115.763 12.6591 115.737 12.6591 115.737ZM12.2465 115.66C12.2208 115.66 12.195 115.685 12.195 115.685H12.2723L12.2465 115.66ZM17.0936 115.17V115.325L17.1452 115.273C17.1452 115.221 17.0936 115.17 17.0936 115.17V115.17ZM11.8082 115.118L11.7825 115.144C11.7825 115.17 11.8082 115.17 11.8082 115.17C11.834 115.17 11.834 115.17 11.834 115.144C11.834 115.144 11.834 115.118 11.8082 115.118ZM11.8856 114.757C11.8856 114.809 11.8856 114.809 11.9114 114.809H11.9372L11.8856 114.757ZM17.9702 114.371C17.9444 114.371 17.9186 114.396 17.9186 114.396C17.9186 114.422 17.9444 114.422 17.9702 114.422C17.9702 114.422 17.996 114.422 17.996 114.396L17.9702 114.371ZM11.6536 113.855V113.906H11.7309L11.6536 113.855ZM17.7897 113.752C17.7639 113.752 17.7639 113.778 17.7639 113.778C17.7639 113.803 17.7639 113.803 17.7897 113.803C17.8155 113.803 17.8155 113.803 17.8155 113.778C17.8155 113.778 17.8155 113.752 17.7897 113.752ZM17.996 113.752L17.9702 113.803H18.0733L17.996 113.752ZM11.6536 111.07V111.019V111.07ZM9.66832 105.269C9.66832 105.295 9.64254 105.295 9.64254 105.321C9.64254 105.347 9.66832 105.347 9.71989 105.373V105.269H9.66832V105.269ZM9.5652 105.063H9.53941C9.53941 105.063 9.51363 105.089 9.51363 105.166C9.51363 105.192 9.53941 105.244 9.53941 105.244C9.59098 105.244 9.59098 105.192 9.59098 105.166C9.59098 105.115 9.59098 105.089 9.5652 105.063V105.063ZM16.2943 105.115V105.192C16.3459 105.192 16.3459 105.166 16.3459 105.115H16.2943ZM9.97771 104.986V105.063C10.0035 105.037 10.0293 105.012 10.0293 104.986H9.97771ZM9.71989 104.857C9.66832 104.857 9.5652 104.96 9.5652 104.986H9.82302C9.79724 104.934 9.74567 104.883 9.71989 104.857ZM13.7677 102.537V102.665C13.8966 102.665 13.8966 102.64 13.9224 102.537H13.7677ZM11.8082 102.485C11.8082 102.485 11.7825 102.511 11.7825 102.537C11.7825 102.562 11.8082 102.588 11.8082 102.588C11.834 102.588 11.834 102.562 11.834 102.537C11.834 102.511 11.834 102.485 11.8082 102.485ZM11.8082 102.279V102.433C11.8598 102.408 11.8598 102.356 11.8598 102.279H11.8082ZM12.4528 102.176C12.4528 102.201 12.427 102.227 12.5044 102.227C12.5044 102.176 12.4528 102.176 12.4528 102.176ZM11.8082 101.995V102.124H11.9372C11.9372 102.047 11.8598 102.021 11.8082 101.995ZM13.7677 101.969V102.072C13.8193 102.047 13.8193 101.995 13.8193 101.969H13.7677ZM14.3607 101.763C14.3607 101.763 14.3607 101.918 14.4638 101.969L14.5154 101.918C14.5154 101.892 14.4896 101.712 14.3865 101.712L14.3607 101.763ZM21.0898 113.262C21.0898 113.056 21.0641 111.999 21.0641 111.792C21.0641 111.767 21.0898 111.225 21.0898 110.967C21.0898 110.452 21.0641 108.002 21.0641 107.848C21.0641 107.538 21.0898 106.713 21.0898 106.533C21.0898 106.198 21.1156 105.424 20.8578 105.424C20.4968 105.424 20.4711 105.45 20.3164 105.45H19.2335C19.2077 105.45 19.182 105.476 19.1562 105.476C19.0273 105.476 18.9757 105.244 18.8984 105.166C18.8984 104.805 18.9757 104.625 19.4398 104.625C19.8007 104.625 20.2648 104.651 20.7289 104.651H23.9517C24.0548 104.676 24.2095 104.78 24.261 104.909L24.2095 110.323L24.261 110.374C24.261 111.354 24.1837 111.406 24.1837 111.767C24.1837 111.87 24.2095 111.947 24.261 111.973C24.261 111.973 24.261 112.102 24.2095 112.256C24.2095 115.092 24.6478 115.428 25.9111 115.428C25.9627 115.428 26.1947 115.376 26.2463 115.376C26.6072 115.196 26.6072 115.221 26.6846 115.17C26.6846 115.196 26.6846 115.196 26.7104 115.196C26.8393 115.196 27.6127 114.783 27.9479 114.113C27.9221 114.113 27.9221 114.113 27.9221 114.087C27.9221 113.829 28.5151 113.107 28.5151 112.463C28.5409 112.437 28.5151 112.231 28.6956 111.689V109.317C28.6956 108.415 28.6182 107.564 28.6182 106.971C28.6182 106.971 28.6182 106.868 28.644 106.739V105.862C28.644 105.244 27.9479 105.605 27.9479 105.321C27.9221 105.373 27.8963 105.45 27.8448 105.45C27.4065 105.45 27.458 105.424 27.2776 105.424C27.0197 105.424 26.9682 105.476 26.7877 105.476C26.5041 105.476 26.2721 105.218 26.2721 105.012C26.2721 104.676 26.7619 104.625 27.1229 104.625C27.7416 104.625 27.9221 104.599 28.051 104.702H30.6035C30.6292 104.676 30.6808 104.651 30.7066 104.651C30.8355 104.651 31.1965 104.754 31.5832 104.754C31.7379 104.754 31.841 104.805 31.841 105.734C31.841 106.146 31.7637 111.535 31.7379 111.689V111.663C31.7379 111.663 31.7894 114.499 31.7894 114.706V114.68C31.7894 114.68 31.8152 115.453 32.434 115.453C32.6403 115.453 32.9239 115.402 33.1817 115.402C33.5426 115.402 33.8778 115.505 33.8778 115.943C33.8778 116.124 33.6715 116.227 33.4653 116.227C33.0786 116.227 32.5887 116.15 32.1762 116.15C32.0988 116.15 31.4027 116.15 31.2222 116.227H29.6237C29.6237 116.278 29.5206 116.33 29.5206 116.33C29.1081 116.33 28.7472 116.304 28.7472 115.892C28.7472 115.866 28.7471 115.84 28.7729 115.789V114.577C28.7214 114.499 28.6182 114.293 28.5151 114.293C28.4635 114.293 28.4378 114.319 28.412 114.371C28.412 114.422 27.819 115.299 27.819 115.273C27.7932 115.479 27.0197 115.943 26.8393 115.995H26.865C26.865 116.021 25.9111 116.15 25.8338 116.33H23.8743C21.657 116.33 21.0898 113.958 21.0898 113.262V113.262ZM29.005 116.201L28.9792 116.15L29.005 116.201ZM28.9534 116.072C28.9276 116.072 28.9018 116.098 28.9018 116.124C28.9018 116.15 28.9276 116.15 28.9534 116.15C28.9792 116.15 28.9792 116.15 28.9792 116.124C28.9792 116.098 28.9792 116.072 28.9534 116.072ZM32.0988 116.021L32.1504 115.995L32.0988 116.021ZM33.4137 115.995C33.3364 115.995 33.3879 115.995 33.3622 116.021H33.4653L33.4137 115.995ZM32.0473 115.943C32.0215 115.943 31.9957 115.969 31.9957 115.995C31.9957 115.995 32.0215 116.021 32.0473 116.021C32.0731 116.021 32.0731 115.995 32.0731 115.995C32.0731 115.969 32.0731 115.943 32.0473 115.943ZM32.7176 115.943C32.6918 115.943 32.6918 115.969 32.6918 115.995C32.6918 115.995 32.6918 116.021 32.7176 116.021L32.7434 115.995C32.7434 115.969 32.7176 115.943 32.7176 115.943ZM26.865 115.685L26.7877 115.789H26.865V115.685ZM21.3219 113.339C21.2961 113.339 21.2703 113.365 21.2703 113.365C21.2703 113.391 21.2961 113.417 21.3219 113.417V113.339ZM21.3219 113.081C21.2961 113.081 21.2703 113.133 21.2703 113.185C21.2703 113.236 21.2961 113.288 21.2961 113.288C21.3219 113.288 21.3219 113.107 21.3219 113.081V113.081ZM21.425 112.488C21.3992 112.488 21.3734 112.514 21.3734 112.54C21.3734 112.566 21.3992 112.592 21.425 112.592C21.4508 112.592 21.4508 112.566 21.4508 112.54C21.4508 112.514 21.4508 112.488 21.425 112.488ZM21.5281 112.437C21.5024 112.437 21.4766 112.437 21.4766 112.463C21.4766 112.463 21.5024 112.488 21.5281 112.488L21.5539 112.463C21.5539 112.437 21.5281 112.437 21.5281 112.437ZM29.2112 106.584C29.2112 106.584 29.2112 106.636 29.237 106.636C29.237 106.61 29.237 106.584 29.2112 106.584ZM28.8245 105.991C28.7987 105.991 28.7729 106.017 28.7729 106.043C28.7729 106.043 28.7987 106.069 28.8245 106.069L28.8503 106.043C28.8503 106.017 28.8245 105.991 28.8245 105.991ZM19.3624 105.321C19.3624 105.398 19.414 105.373 19.4656 105.373V105.269C19.4656 105.295 19.4398 105.244 19.3624 105.321V105.321ZM27.1487 105.269C27.1229 105.269 27.1229 105.295 27.1229 105.321C27.1229 105.347 27.1229 105.373 27.1487 105.373C27.1744 105.373 27.1744 105.347 27.1744 105.321C27.1744 105.295 27.1744 105.269 27.1487 105.269ZM19.1562 105.218V105.244H19.2077L19.1562 105.218ZM31.4285 105.115C31.4285 105.141 31.4027 105.141 31.4027 105.166C31.4027 105.192 31.4285 105.192 31.4801 105.218V105.244L31.4285 105.115ZM29.4175 105.115C29.3917 105.115 29.3659 105.141 29.3659 105.166C29.3659 105.192 29.3917 105.218 29.4175 105.218C29.4175 105.218 29.4433 105.192 29.4433 105.166C29.4433 105.141 29.4175 105.115 29.4175 105.115ZM20.9351 105.012C20.9094 105.012 20.8836 105.037 20.8836 105.063C20.8836 105.089 20.9094 105.115 20.9351 105.115C20.9351 105.115 20.9609 105.089 20.9609 105.063C20.9609 105.037 20.9351 105.012 20.9351 105.012ZM29.3144 105.012V105.063H29.3659C29.3659 105.012 29.3659 105.012 29.3144 105.012ZM26.6846 104.909C26.6846 104.986 26.7104 104.986 26.7361 105.012C26.7361 105.012 26.7877 105.012 26.8393 104.96C26.8393 104.96 26.8393 104.909 26.7877 104.857L26.6846 104.909ZM27.6385 105.012L27.6127 104.96L27.6385 105.012ZM19.3624 104.909L19.3882 104.96H19.4398L19.3624 104.909ZM28.051 104.96V105.012V104.934V104.96V104.96ZM34.5224 111.586C34.5224 111.199 34.4708 110.813 34.4708 110.477C34.4708 109.833 34.5481 109.549 34.5481 109.317C34.5224 109.317 34.4966 109.317 34.4966 109.291C34.4966 109.163 34.806 108.776 34.806 108.544C34.806 108.518 34.7802 108.466 34.7802 108.441C34.7802 108.441 34.7802 108.466 34.806 108.466C34.8833 108.466 35.0122 107.693 35.2443 107.487V107.513C35.27 107.513 35.4505 106.739 35.7083 106.739L35.6568 106.791C35.6826 106.791 36.2498 106.249 36.2498 106.069C36.2498 105.888 36.817 105.759 36.9459 105.45C37.3842 105.45 37.2811 104.857 37.8998 104.857C38.7249 104.857 38.8538 104.419 39.4725 104.419C40.3491 104.419 40.4007 104.496 40.7874 104.496L40.7359 104.548C41.1742 104.548 42.025 105.244 42.1281 105.244C42.1281 105.244 42.1539 105.218 42.1797 105.218C42.2312 105.218 42.3344 105.321 42.7727 105.811C42.9789 105.811 43.1078 105.837 43.1336 105.759V103.8L43.1078 103.671C43.1078 103.465 43.1078 103.413 43.1336 103.284V102.072C43.1078 101.995 43.1078 101.918 43.1078 101.866C43.1078 101.737 43.1336 101.634 43.1336 101.505V101.531C43.1336 101.531 43.1336 101.428 43.1078 101.351C43.1078 100.706 43.1336 100.5 43.1336 100.345C43.1336 100.319 43.1078 100.216 43.1078 100.19V98.5403C43.1336 98.3856 43.1336 98.2309 43.1336 98.0762C43.1336 97.5864 43.082 97.1996 42.4633 97.1996C42.3086 97.1996 42.2055 97.2254 42.1023 97.277H41.5093L41.4836 97.3801H41.3031C41.0968 97.3801 40.478 97.3801 40.478 97.0192C40.478 96.8645 40.4523 96.452 41.0968 96.452C41.1484 96.452 41.3546 96.5035 41.4062 96.5035C44.1391 96.5035 44.7579 96.452 45.3767 96.452C45.8665 96.452 46.1501 96.4004 46.2533 96.7356V100.345C46.2533 100.448 46.2017 100.809 46.2017 100.912C46.2017 102.356 46.3048 106.017 46.3048 106.223L46.3564 112.643L46.3048 112.721V115.17L46.5111 115.376H47.9549C48.058 115.376 48.419 115.376 48.419 115.711C48.419 116.15 48.2901 116.227 47.9291 116.227C46.3822 116.227 46.6916 116.253 45.6087 116.253C45.5314 116.253 45.4282 116.227 45.3767 116.227C44.5259 116.227 44.1649 116.33 43.7266 116.33C43.7266 116.227 43.1852 116.33 43.1852 116.124V115.299C43.1594 115.196 43.1078 115.015 42.9274 115.015C42.3344 115.531 42.3344 115.531 42.1539 115.763C41.8961 115.763 41.6898 116.227 41.4062 116.227C40.246 116.227 40.5296 116.536 40.0913 116.536C40.0398 116.536 40.0655 116.536 40.0398 116.485H39.5757C39.5499 116.536 39.4983 116.536 39.4468 116.536C39.2663 116.536 39.2147 116.433 38.9827 116.433C37.7194 116.382 37.7967 116.15 36.9459 115.582C36.9459 115.428 35.9662 114.654 35.9404 114.654C35.2958 114.01 35.6052 113.855 35.0122 113.133C35.0122 112.849 34.5224 112.179 34.5224 111.586V111.586ZM39.0342 116.227C39.0085 116.227 38.9827 116.253 38.9827 116.278C38.9827 116.304 39.0085 116.33 39.0342 116.33C39.06 116.33 39.06 116.304 39.06 116.278C39.06 116.253 39.06 116.227 39.0342 116.227ZM40.4007 116.227L40.3234 116.278C40.3749 116.278 40.4007 116.278 40.4523 116.227H40.4007V116.227ZM38.9053 116.227C38.8796 116.227 38.8796 116.227 38.8796 116.253C38.8796 116.253 38.8796 116.278 38.9053 116.278C38.9311 116.278 38.9311 116.253 38.9311 116.253C38.9311 116.227 38.9311 116.227 38.9053 116.227ZM38.9827 116.227C38.9569 116.227 38.9569 116.227 38.9569 116.253C38.9569 116.253 38.9569 116.278 38.9827 116.278C39.0085 116.278 39.0085 116.253 39.0085 116.253C39.0085 116.227 39.0085 116.227 38.9827 116.227ZM40.9937 116.175C40.9421 116.175 40.9163 116.201 40.8906 116.227C40.9679 116.227 40.9937 116.227 41.0453 116.175H40.9937ZM43.8813 116.175C43.8555 116.175 43.8297 116.201 43.8297 116.227H43.8813H43.9071C43.9071 116.201 43.9071 116.175 43.8813 116.175ZM43.7782 116.124C43.7524 116.124 43.7266 116.15 43.7266 116.175C43.7266 116.201 43.7524 116.227 43.7782 116.227C43.804 116.227 43.804 116.201 43.804 116.175C43.804 116.15 43.804 116.124 43.7782 116.124ZM47.4135 116.175C47.4135 116.15 47.3619 116.15 47.3103 116.15C47.2588 116.15 47.2072 116.15 47.2072 116.175C47.2072 116.201 47.2588 116.227 47.3103 116.227C47.3361 116.227 47.3877 116.201 47.4135 116.175ZM47.8775 116.072C47.826 116.098 47.8002 116.124 47.8002 116.15L47.826 116.175C47.9033 116.175 47.9807 116.175 48.0322 116.124C48.0065 116.098 47.9291 116.072 47.8775 116.072ZM38.3123 116.072C38.2866 116.072 38.2866 116.098 38.2866 116.124C38.2866 116.15 38.2866 116.175 38.3123 116.175C38.3381 116.175 38.3381 116.15 38.3381 116.124C38.3381 116.098 38.3381 116.072 38.3123 116.072ZM41.2773 116.046C41.2515 116.046 41.2515 116.072 41.2515 116.098C41.2515 116.098 41.2515 116.124 41.2773 116.124V116.046ZM41.2515 115.995C41.2257 115.995 41.1999 116.021 41.1999 116.046C41.1999 116.046 41.2257 116.072 41.2515 116.072L41.2773 116.046C41.2773 116.021 41.2515 115.995 41.2515 115.995ZM41.5093 115.866C41.4578 115.892 41.432 115.995 41.4062 116.046C41.5351 116.046 41.5093 116.046 41.5609 115.995C41.5609 115.943 41.5609 115.918 41.5093 115.866ZM41.1484 115.84L41.0968 115.918H41.1484V115.84ZM48.0322 115.763C48.0838 115.763 48.1869 115.789 48.2385 115.789C48.2385 115.711 48.1611 115.66 48.0838 115.66C48.0322 115.711 48.0322 115.737 48.0322 115.763V115.763ZM39.0342 115.66C39.1632 115.711 39.653 115.763 39.7819 115.763C40.0398 115.763 40.7101 115.685 40.839 115.634C40.839 115.634 41.6125 115.067 41.7156 115.067C41.7414 115.067 41.7414 115.118 41.7414 115.092C41.7414 115.092 41.8445 115.015 42.3601 114.499C42.3859 113.803 42.9789 114.035 42.9789 113.262C42.9789 113.262 43.0305 112.437 43.1336 112.282C43.1336 112.231 43.1078 112.05 43.1078 111.973C43.1078 111.921 43.1336 111.818 43.1336 111.767V108.183C43.1336 107.796 42.8758 107.177 42.8758 107.126C42.8758 107.048 42.9274 107.048 42.9274 106.971V106.997C42.9016 106.997 42.6695 106.223 41.6382 105.708C41.5867 105.708 41.2515 105.244 40.4007 105.244C39.4983 105.244 39.4983 105.321 39.1116 105.321C38.0287 105.321 38.1061 109.266 38.0287 109.266C38.0287 109.962 38.0803 109.962 38.0803 110.271C38.0803 110.606 37.9772 110.864 37.9772 111.019C37.9772 111.406 38.0803 111.431 38.0803 111.895C38.0803 112.076 38.003 112.308 38.003 112.488C38.003 112.514 38.0287 112.695 38.0287 112.695C38.0287 112.695 38.0287 112.746 38.003 112.798C38.003 113.623 38.1577 114.061 38.1577 114.474C38.1577 114.525 38.5186 115.582 39.0342 115.66V115.66ZM41.8445 115.711C41.8187 115.711 41.8187 115.737 41.8187 115.763C41.8187 115.763 41.8187 115.789 41.8445 115.789C41.8703 115.789 41.8703 115.763 41.8703 115.763C41.8703 115.737 41.8703 115.711 41.8445 115.711ZM42.0508 115.634C42.0508 115.608 42.0508 115.608 42.025 115.608V115.66C42.0508 115.66 42.0508 115.66 42.0508 115.634ZM38.3123 104.96C38.3123 105.089 38.467 105.218 38.5186 105.244C38.5186 105.012 38.7249 105.037 38.7249 104.883C38.7249 104.857 38.7249 104.857 38.6733 104.857C38.5959 104.857 38.4413 104.986 38.3639 104.986C38.3381 104.986 38.3123 104.986 38.3123 104.96V104.96ZM43.3141 100.268C43.2883 100.268 43.2625 100.293 43.2625 100.293C43.2625 100.319 43.2883 100.319 43.3141 100.319C43.3399 100.319 43.3399 100.319 43.3399 100.293C43.3399 100.293 43.3399 100.268 43.3141 100.268ZM43.3914 100.061C43.3657 100.061 43.3657 100.087 43.3657 100.087C43.3657 100.113 43.3657 100.113 43.3914 100.113C43.3914 100.113 43.4172 100.113 43.4172 100.087L43.3914 100.061ZM43.3914 98.9013C43.3657 98.9013 43.3657 98.927 43.3657 98.9528C43.3657 98.9528 43.3657 98.9786 43.3914 98.9786L43.4172 98.9528C43.4172 98.927 43.3914 98.9013 43.3914 98.9013ZM43.3141 97.7411C43.2883 97.7411 43.2625 97.7411 43.2625 97.7668H43.3141H43.3399C43.3399 97.7411 43.3399 97.7411 43.3141 97.7411ZM43.3141 97.5606C43.2883 97.5606 43.2625 97.5864 43.2625 97.6122C43.2625 97.6379 43.2883 97.6637 43.3141 97.6637C43.3399 97.6637 43.3399 97.6379 43.3399 97.6122C43.3399 97.5864 43.3399 97.5606 43.3141 97.5606ZM41.8445 97.0192C41.8445 96.9934 41.8445 96.9934 41.8187 96.9934V97.0707C41.8445 97.0707 41.8445 97.0449 41.8445 97.0192ZM43.0305 96.9676C43.0047 96.9676 42.9789 96.9676 42.9789 96.9934C42.9789 96.9934 43.0047 97.0192 43.0305 97.0192L43.0563 96.9934C43.0563 96.9676 43.0305 96.9676 43.0305 96.9676ZM40.6843 96.8645C40.6585 96.8645 40.6585 96.8902 40.6585 96.916C40.6585 96.9418 40.6585 96.9676 40.6843 96.9676C40.7101 96.9676 40.7101 96.9418 40.7101 96.916C40.7101 96.8902 40.7101 96.8645 40.6843 96.8645ZM45.7892 96.916L45.8407 96.9676C45.9181 96.916 45.9954 96.8645 45.9954 96.7613C45.815 96.7613 45.815 96.8387 45.7892 96.916ZM41.8187 96.7098C41.7929 96.7098 41.7672 96.7356 41.7672 96.7356C41.7672 96.7356 41.7929 96.7613 41.8187 96.7613L41.8445 96.7356L41.8187 96.7098ZM45.9181 96.6066V96.7098H45.9697V96.6066H45.9181ZM49.0893 115.995C49.0893 115.505 49.4503 115.453 49.7596 115.453C49.8628 115.453 50.7136 115.531 50.7394 115.531C50.9456 115.531 51.0488 115.428 51.2034 115.428C51.2808 114.345 51.3066 113.21 51.3066 112.411C51.3066 112.36 51.255 111.483 51.255 111.225C51.255 111.225 51.3066 110.22 51.3066 110.245C51.3066 110.142 51.255 109.524 51.255 109.446C51.255 109.24 51.3066 109.008 51.3066 108.776C51.3066 108.724 51.255 107.951 51.255 107.977C51.255 107.873 51.3066 107.461 51.3066 107.358C51.3066 105.888 51.3324 105.476 50.8167 105.476C49.7339 105.476 49.6823 105.502 49.3471 105.502C48.9604 105.502 48.9088 105.45 48.9088 105.192C48.9088 104.78 49.244 104.728 49.837 104.728H51.0745C51.1261 104.728 51.2034 104.78 51.255 104.78C52.4668 104.78 52.1316 104.599 53.7559 104.599C54.5551 104.599 54.2457 104.78 54.4004 105.192V114.628L54.452 115.299C54.4778 115.402 54.6583 115.505 54.9676 115.505C55.0966 115.505 55.277 115.453 55.4059 115.453C55.4059 115.479 55.4317 115.479 55.5091 115.479C55.6122 115.479 55.8185 115.453 56.0247 115.453C56.3083 115.453 56.5661 115.479 56.5661 115.634C56.5661 116.175 56.0763 116.253 55.638 116.253C54.8129 116.253 54.5809 116.098 54.5551 116.098C54.3231 116.098 54.7356 116.304 53.5754 116.304C53.5496 116.278 53.0598 116.201 52.6988 116.201C52.5441 116.201 52.08 116.304 51.9253 116.304C51.7449 116.304 51.6933 116.201 51.5128 116.201C51.4355 116.227 51.1261 116.33 50.9714 116.33C50.7651 116.33 50.3526 116.33 50.3526 116.15C50.1464 116.15 50.3268 116.33 50.0175 116.33C49.9401 116.33 49.8628 116.253 49.7596 116.253C49.7339 116.253 49.6049 116.304 49.5534 116.304C49.4503 116.304 49.1667 116.253 49.0893 115.995V115.995ZM49.9143 115.892C49.9143 116.021 49.9659 116.175 50.1464 116.175C50.1464 115.892 50.0175 115.969 49.9143 115.892ZM49.837 116.098C49.8112 116.098 49.8112 116.124 49.8112 116.124C49.8112 116.15 49.8112 116.15 49.837 116.15C49.8628 116.15 49.8628 116.15 49.8628 116.124C49.8628 116.124 49.8628 116.098 49.837 116.098ZM50.662 116.046C50.662 116.124 50.6878 116.124 50.7136 116.15L50.7651 116.098C50.7651 116.098 50.7651 116.046 50.7136 115.995L50.662 116.046ZM55.7153 116.046V116.098H55.7669V116.046H55.7153ZM49.244 115.892C49.2698 115.943 49.2956 115.995 49.4245 115.995C49.4503 115.995 49.476 115.969 49.5534 115.918C49.5534 115.866 49.476 115.789 49.4503 115.763C49.4503 115.789 49.244 115.84 49.244 115.892V115.892ZM55.1997 115.84C55.1739 115.84 55.1481 115.866 55.1481 115.892C55.1481 115.918 55.1739 115.918 55.1997 115.918C55.2255 115.918 55.2255 115.918 55.2255 115.892C55.2255 115.866 55.2255 115.84 55.1997 115.84ZM56.4114 115.763V115.892H56.4888V115.763H56.4114ZM56.3599 115.685H56.3083C56.3083 115.711 56.3341 115.711 56.3599 115.711C56.3857 115.711 56.3857 115.711 56.3857 115.685H56.3599ZM53.5754 107.152C53.5754 107.177 53.5496 107.177 53.5496 107.203C53.5496 107.229 53.5754 107.229 53.627 107.255C53.6785 107.229 53.7559 107.152 53.7559 107.126C53.7559 107.1 53.7301 107.1 53.7043 107.1C53.6528 107.1 53.5754 107.152 53.5754 107.152V107.152ZM52.1832 105.244V105.347H52.2089C52.2089 105.321 52.2089 105.269 52.1832 105.244ZM54.1168 105.218V105.295L54.1942 105.347L54.1168 105.218ZM51.2034 105.012C51.2034 105.166 51.2034 105.166 51.255 105.244C51.3066 105.244 51.3066 105.192 51.3324 105.141C51.3066 105.063 51.2808 105.012 51.2034 105.012ZM51.7707 105.037C51.7707 105.244 51.7707 105.166 51.8738 105.218C51.8738 105.037 51.848 105.037 51.7707 105.037ZM53.7817 105.037C53.7817 105.063 53.7559 105.063 53.7559 105.089C53.7559 105.115 53.7817 105.115 53.8332 105.141L53.9364 105.012L53.9106 104.986C53.8074 104.986 53.7559 104.986 53.7817 105.037V105.037ZM54.1942 105.037C54.1684 105.037 54.1426 105.063 54.1426 105.063C54.1426 105.089 54.1684 105.089 54.1942 105.089C54.22 105.089 54.22 105.089 54.22 105.063C54.22 105.063 54.22 105.037 54.1942 105.037ZM53.627 105.012C53.6012 105.012 53.5754 105.012 53.5754 105.037C53.5754 105.063 53.6012 105.089 53.627 105.089V105.037V105.012ZM50.8167 98.9013C50.8167 98.7466 50.8425 98.5661 50.9198 98.2051V98.2309C50.9456 98.2309 51.0488 97.7411 51.2034 97.7411C51.4613 97.7411 51.3066 97.1481 52.4926 97.1481C53.6528 97.1481 54.6583 97.6379 54.6583 99.0817C54.6583 99.288 54.6067 100.68 52.8793 100.68C50.9198 100.68 50.7909 99.6489 50.7909 99.1591C50.7909 99.0044 50.8167 98.927 50.8167 98.9013ZM53.5496 100.113C53.5238 100.113 53.4981 100.139 53.4981 100.139C53.4981 100.165 53.5238 100.19 53.5496 100.19C53.5496 100.19 53.5754 100.165 53.5754 100.139L53.5496 100.113ZM50.9972 99.2106H50.9714C50.9714 99.2364 50.9714 99.2364 50.9972 99.2364C51.023 99.2364 51.023 99.2364 51.023 99.2106H50.9972ZM54.0395 98.0762C54.0137 98.0762 53.9879 98.0762 53.9879 98.102H54.0395H54.0653C54.0653 98.0762 54.0653 98.0762 54.0395 98.0762ZM53.7559 97.7153C53.7559 97.6895 53.7301 97.6895 53.7301 97.6895C53.7043 97.6895 53.7043 97.6895 53.7043 97.7153C53.7043 97.7411 53.7043 97.7411 53.7301 97.7411C53.7301 97.7411 53.7559 97.7411 53.7559 97.7153ZM53.2402 97.509C53.2145 97.509 53.1887 97.5348 53.1887 97.5864C53.1887 97.5864 53.2145 97.6122 53.2402 97.6122C53.266 97.6122 53.266 97.5864 53.266 97.5864C53.266 97.5348 53.266 97.509 53.2402 97.509ZM52.1832 97.3543C52.1832 97.4059 52.1832 97.4832 52.2089 97.509C52.2605 97.4832 52.3121 97.4317 52.3636 97.3543H52.1832ZM53.1629 97.4575C53.1371 97.4575 53.1371 97.4832 53.1371 97.509C53.1371 97.509 53.1371 97.5348 53.1629 97.5348V97.4575ZM61.2327 115.943C61.2069 115.943 61.2327 115.918 61.2843 115.789C61.1296 115.685 61.1038 115.453 61.078 115.453C60.9233 115.453 60.8718 115.943 60.8976 115.995C60.7686 115.995 60.3303 115.763 60.3303 115.711C60.3303 115.685 60.3561 115.789 60.253 115.789C60.1499 115.789 59.8663 115.634 59.067 114.835C58.9381 114.68 58.7576 114.525 58.7576 114.474C58.7834 114.396 58.2935 114.113 58.2935 113.829C57.9842 113.674 57.881 113.03 57.5974 112.798H57.6232C57.6232 112.798 57.0818 111.87 57.0818 110.838C57.0818 110.735 57.1333 110.142 57.1333 110.013C57.1333 108.853 57.8553 108.286 57.8553 107.848C57.8553 107.564 58.5772 107.1 58.8608 106.378C58.8608 106.275 59.9178 105.424 59.9694 105.373C60.3561 105.373 60.5624 104.78 61.1038 104.78C61.3101 104.831 62.2382 104.367 62.7539 104.367H63.9656C64.1461 104.367 64.4039 104.496 64.7133 104.496C64.6875 104.496 64.6875 104.47 64.6875 104.47C64.7391 104.47 65.0743 104.676 65.5383 104.754C65.5383 104.728 65.5641 104.728 65.5899 104.728C65.7446 104.728 66.054 105.037 66.1829 105.063C66.1829 105.063 66.3376 105.192 67.24 105.862L67.2142 105.888C67.2142 105.888 67.4462 105.862 68.4517 107.1C68.6838 107.59 68.9416 107.899 69.1221 108.363C69.1736 108.415 69.5604 109.163 69.5604 109.859C69.5604 111.792 68.9158 112.205 68.8642 113.133C68.89 113.314 68.5033 113.417 68.4517 113.803C68.4517 113.932 68.0392 114.139 67.4978 114.912C67.3947 114.912 66.5181 115.789 66.3376 115.789C66.3376 115.763 66.3118 115.737 66.286 115.737C66.1829 115.737 65.8477 116.201 65.3321 116.201L65.229 116.15C65.0227 116.15 65.0743 116.407 64.7649 116.407C64.4297 116.407 64.4813 116.33 64.3008 116.33C64.3008 116.588 64.0688 116.382 63.9656 116.588H62.6507C62.2124 116.433 61.2069 116.588 61.2327 115.943V115.943ZM63.7078 116.459L63.7594 116.485L63.8109 116.459L63.7594 116.407L63.7078 116.459ZM64.9196 116.253C64.868 116.253 64.8422 116.278 64.7907 116.278L64.8164 116.304C64.8422 116.304 64.868 116.278 64.9711 116.253H64.9196ZM65.8219 115.84C65.7962 115.84 65.7446 115.892 65.7188 115.918H65.8219V115.84ZM62.4703 115.685C62.7281 115.685 62.857 115.84 63.3211 115.866C63.3211 115.789 63.3469 115.84 63.8625 115.737C63.9141 115.737 64.1461 115.789 64.1719 115.789C64.3781 115.789 64.2235 115.634 64.6617 115.634C65.2547 115.221 65.1516 115.453 65.7188 114.319V114.345C65.7446 114.345 65.9509 112.282 65.9509 111.947C65.9509 111.767 65.8219 111.663 65.8219 111.509L65.8735 111.354C65.8477 111.251 65.7962 111.096 65.7962 111.019C65.7962 110.555 66.0024 110.658 66.0024 110.117C66.0024 108.028 65.8477 107.384 65.6415 106.378C65.6415 105.295 63.6047 105.166 63.45 105.063C62.5734 105.166 62.0062 105.089 61.439 105.682C61.439 105.682 61.0265 105.991 61.0265 106.481C61.0265 107.306 60.7171 107.358 60.7171 108.028C60.7171 108.698 60.6913 109.807 60.6913 109.988C60.6913 113.906 60.846 113.649 61.1038 114.474C61.1296 114.474 61.3616 115.685 62.4445 115.685H62.4703V115.685ZM64.8422 115.789C64.8164 115.789 64.7907 115.814 64.7907 115.84C64.7907 115.866 64.8164 115.892 64.8422 115.892C64.8422 115.892 64.868 115.866 64.868 115.84C64.868 115.814 64.8422 115.789 64.8422 115.789ZM65.4868 115.685C65.4868 115.685 65.461 115.711 65.461 115.737C65.461 115.763 65.4868 115.789 65.4868 115.789C65.5126 115.789 65.5126 115.763 65.5126 115.737C65.5126 115.711 65.5126 115.685 65.4868 115.685ZM57.8295 112.849C57.8295 112.824 57.8037 112.824 57.8037 112.824C57.7779 112.824 57.7779 112.824 57.7779 112.849C57.7779 112.875 57.7779 112.901 57.8037 112.901C57.8037 112.901 57.8295 112.875 57.8295 112.849ZM57.7006 110.349C57.6748 110.349 57.649 110.374 57.649 110.4C57.649 110.4 57.6748 110.426 57.7006 110.426C57.7263 110.426 57.7263 110.4 57.7263 110.4C57.7263 110.374 57.7263 110.349 57.7006 110.349ZM57.3912 110.142C57.3654 110.142 57.3654 110.168 57.3654 110.194C57.3654 110.194 57.3654 110.22 57.3912 110.22C57.417 110.22 57.417 110.194 57.417 110.194C57.417 110.168 57.417 110.142 57.3912 110.142ZM66.0282 105.424C65.9251 105.424 65.9251 105.476 65.8735 105.476C65.9509 105.476 66.0282 105.502 66.0282 105.424ZM65.0227 104.96C64.9969 105.012 65.0485 105.012 65.1258 105.037C65.1516 105.037 65.2032 105.037 65.229 105.012C65.1516 104.986 65.0743 104.96 65.0485 104.96H65.0227V104.96ZM61.4905 104.909L61.5163 104.883L61.4905 104.909ZM62.496 104.625C62.5476 104.599 62.3414 104.651 62.2898 104.676V104.754C62.4187 104.754 62.496 104.78 62.496 104.625ZM62.7023 104.676V104.754C62.7281 104.754 62.7281 104.728 62.7281 104.728C62.7281 104.702 62.7281 104.676 62.7023 104.676V104.676ZM82.1163 116.278L81.9874 116.124V115.685C81.9874 115.634 82.1679 115.453 82.1936 115.428H83.8953C83.9726 115.376 84.0757 115.299 84.1015 115.221V113.752C84.1531 113.752 84.1789 113.674 84.1789 113.623C84.1789 113.571 84.1015 113.236 84.1015 113.133V106.12C84.1015 105.734 83.9468 105.682 83.8437 105.527H82.7866C82.6835 105.579 82.6061 105.579 82.5546 105.579C81.7038 105.579 81.678 105.424 81.678 105.192C81.678 104.728 82.8124 104.676 83.5859 104.676C84.1531 104.676 84.1789 104.702 84.7461 104.702C86.3188 104.702 86.2672 104.573 86.6024 104.573C86.8602 104.573 87.2212 104.573 87.2212 105.115C87.2212 105.218 87.3243 105.837 87.3243 105.914C87.3243 105.914 87.3243 105.991 87.2727 106.043C87.2727 106.43 87.3243 106.636 87.4532 106.636C87.6079 106.636 87.8142 106.223 87.9173 106.043C87.9173 105.837 88.897 105.063 89.0517 104.909C89.258 104.909 89.8767 104.47 90.2892 104.47C90.908 104.47 91.0369 104.496 91.3205 104.496C91.6041 104.496 92.8675 105.141 92.8675 105.914V106.739C92.8675 107.306 92.5581 107.435 92.2745 107.745C92.094 107.796 91.6299 108.234 91.3205 108.234C90.1346 108.234 89.4642 107.28 89.4642 106.249C89.6189 106.327 89.258 106.043 89.258 105.94C88.6908 105.94 88.4329 106.842 88.1235 106.842C88.0204 106.842 87.8657 107.384 87.7626 107.487C87.7368 108.312 87.3243 107.925 87.3243 109.188V110.374L87.3759 110.529C87.3759 110.71 87.3243 110.813 87.3243 110.967C87.3243 111.225 87.4274 113.855 87.4274 114.989C87.4274 115.247 87.6337 115.221 87.6337 115.428C88.5103 115.428 88.6908 115.376 88.9228 115.376C89.7736 115.376 89.8767 115.402 89.8767 115.892C89.8509 115.918 89.8767 116.021 89.7994 116.072V116.046C89.7478 116.046 89.49 116.304 89.1548 116.304C88.5618 116.304 89.1806 116.201 87.6595 116.201C87.3243 116.201 86.4219 116.253 86.4219 116.253H85.9063C85.9063 116.253 85.6484 116.201 85.5453 116.201C85.4164 116.201 84.7461 116.253 84.7461 116.253L83.2765 116.278C83.096 116.278 82.8898 116.407 82.8382 116.407C82.6062 116.407 82.3741 116.278 82.1163 116.278V116.278ZM82.0647 115.84C82.0647 115.943 82.1936 116.175 82.1936 116.201H82.3225C82.3225 116.124 82.1679 115.866 82.0647 115.84V115.84ZM82.8124 116.072C82.8124 116.201 82.9413 116.15 82.9671 116.201C83.0187 116.201 83.1218 116.15 83.1218 116.15C83.0444 116.15 82.9155 116.072 82.8124 116.072V116.072ZM83.9468 116.124V116.15H83.9726L83.9468 116.124ZM83.4827 116.072C83.457 116.072 83.4312 116.098 83.4312 116.098C83.4312 116.124 83.457 116.124 83.4827 116.124C83.5085 116.124 83.5085 116.124 83.5085 116.098C83.5085 116.098 83.5085 116.072 83.4827 116.072ZM89.258 116.046C89.258 116.098 89.258 116.124 89.3353 116.124C89.4127 116.124 89.4642 116.098 89.49 115.995C89.49 115.969 89.49 115.969 89.4642 115.918C89.4126 116.072 89.3869 116.046 89.258 116.046V116.046ZM88.072 116.046C88.0978 116.072 88.1493 116.072 88.1235 116.098C88.1493 116.098 88.2009 116.072 88.2267 115.995L88.1751 115.918C88.0978 115.943 88.1493 115.995 88.072 116.046V116.046ZM89.6963 115.737C89.6447 115.763 89.6447 115.789 89.6447 115.84H89.6963V115.737ZM82.864 115.737V115.789H82.9155V115.737H82.864ZM82.3225 115.685C82.3225 115.66 82.2968 115.66 82.2968 115.66C82.271 115.66 82.271 115.66 82.271 115.685H82.3225V115.685ZM91.6557 107.951C91.5784 107.977 91.501 108.002 91.501 108.028L91.6557 108.002V107.951V107.951ZM92.1971 107.409L92.2229 107.538L92.2745 107.435V107.409H92.1971ZM82.6835 105.476C82.6835 105.45 82.6835 105.45 82.6577 105.45C82.6319 105.45 82.6062 105.45 82.6062 105.476H82.6577H82.6835ZM82.9155 105.321C82.864 105.347 82.8382 105.373 82.8382 105.398L82.864 105.424H82.9155V105.321ZM83.1218 105.321C83.1734 105.373 83.1476 105.398 83.1734 105.373V105.321H83.1218ZM83.3796 105.373C83.3796 105.347 83.3796 105.347 83.3538 105.347C83.3538 105.347 83.3281 105.347 83.3281 105.373C83.3281 105.398 83.3538 105.424 83.3538 105.424C83.3796 105.424 83.3796 105.398 83.3796 105.373ZM82.271 105.012L82.3999 105.166C82.4257 105.166 82.5288 105.141 82.6062 105.115C82.7608 105.115 82.9413 105.166 82.9929 105.166C83.0445 105.166 83.1734 105.141 83.1734 105.063C83.0702 104.986 82.8124 104.96 82.3225 104.96L82.271 105.012ZM81.91 105.063L81.9616 105.115C81.9874 105.115 81.9874 105.115 82.0132 105.063L81.9874 105.037L81.91 105.063ZM86.9118 104.831C86.8602 104.857 86.8087 104.831 86.8087 104.96V105.012C86.9118 105.012 86.9118 104.857 86.9118 104.831V104.831ZM97.9981 116.407V116.356C97.663 116.356 97.3793 116.201 97.1473 116.201C96.1418 115.763 96.3481 115.918 95.9356 115.685C95.9098 115.711 95.9098 115.711 95.884 115.711C95.7293 115.711 95.3426 115.196 95.2136 115.196C94.9043 115.196 94.4144 114.474 94.2081 114.216C94.2081 114.061 93.6667 113.649 93.6667 113.417C93.6925 113.417 93.6925 113.391 93.6925 113.365C93.6925 113.262 93.4089 113.133 93.4089 113.03C93.4089 112.308 93.0995 111.844 93.0995 111.302C93.0995 110.245 93.0737 109.652 93.2542 109.085C93.2284 109.085 93.2026 109.059 93.2026 109.034C93.2026 108.879 93.5636 108.518 93.5636 108.209C93.5636 108.183 93.5378 108.157 93.5378 108.131C93.5378 107.977 94.0019 107.616 94.0019 107.306C94.4917 106.816 94.0535 107.023 94.93 106.172C94.93 106.198 94.9558 106.198 94.9558 106.198C95.0847 106.198 95.059 105.553 95.5488 105.553C95.7293 105.063 96.0645 105.244 96.2965 105.012C96.2965 105.037 96.2707 105.037 96.2707 105.037C96.2707 105.037 96.477 104.625 97.1989 104.625C97.3278 104.625 98.3591 104.212 98.9521 104.212C99.2614 104.212 100.086 104.367 100.396 104.367V104.419C100.447 104.419 100.834 104.625 101.04 104.625C101.066 104.625 101.066 104.599 101.092 104.599C101.247 104.599 101.505 104.96 101.814 104.96C101.788 104.96 101.788 104.96 101.788 104.986C101.788 105.012 102.226 105.141 102.355 105.244C102.51 105.244 102.742 105.734 103.026 105.734L103 105.708C103.567 106.455 104.263 107.564 104.263 108.157V109.034C104.031 109.188 103.902 109.575 103.619 109.575C103.619 109.549 103.593 109.524 103.593 109.524C103.541 109.524 103.464 109.627 103.232 109.627C103.077 109.627 102.819 109.575 102.458 109.369C102.381 109.369 102.458 109.42 101.814 109.42V109.369H101.35L101.247 109.42C100.679 109.42 100.241 109.291 99.6224 109.291C99.6224 109.291 99.1841 109.317 99.0294 109.317C98.9779 109.317 98.7716 109.24 98.72 109.24C98.6427 109.24 98.4106 109.291 98.3075 109.317H96.9153L96.8379 109.369C96.8121 109.369 96.8121 109.343 96.8121 109.343C96.6832 109.343 96.5543 110.194 96.5285 110.194C96.5028 110.194 96.5028 110.22 96.5028 110.22C96.5028 110.245 96.5801 110.297 96.5801 110.529V112.05C96.5801 112.05 96.5543 112.282 96.5543 112.643C96.5543 113.314 96.6317 114.371 96.9926 114.628C96.9926 114.603 96.9926 114.577 97.0184 114.577C97.0442 114.577 97.0184 115.634 98.5653 115.634C100.602 115.634 100.731 115.299 101.04 115.299H100.989C100.989 115.273 101.994 115.273 102.768 113.932C102.768 113.932 103.309 113.391 103.309 113.056C103.309 112.411 103.799 112.205 103.825 112.153C104.392 112.153 104.16 112.308 104.289 112.411C104.289 112.643 104.263 112.617 104.212 112.643C103.98 112.643 104.005 112.308 103.928 112.308C103.799 112.308 103.773 112.411 103.773 112.463C103.773 112.669 104.005 112.669 104.005 112.824L104.083 112.772C104.16 112.772 104.212 112.772 104.212 112.875C104.212 113.159 103.799 114.216 103.464 114.216C103.412 114.216 103.283 114.139 103.206 114.139V114.525L103.258 114.551V114.525C103.206 114.525 103 115.221 102.639 115.221C102.639 115.299 102.149 115.789 101.891 115.789C101.891 115.789 101.891 115.737 101.865 115.737C101.814 115.737 101.479 116.201 100.937 116.201C100.937 116.304 99.4419 116.459 98.2302 116.459L97.9981 116.407ZM99.1068 116.201C99.1325 116.201 99.2357 116.382 99.313 116.382C99.3388 116.382 99.3646 116.356 99.4161 116.201C99.4161 116.15 99.1583 116.15 99.1841 116.15C99.1325 116.15 99.1325 116.15 99.1068 116.201V116.201ZM97.8692 116.15C97.895 116.227 97.8692 116.278 98.0239 116.278C98.0239 116.278 98.0497 116.253 98.0755 116.201C98.0497 116.15 97.895 116.175 97.8692 116.15V116.15ZM99.6224 116.201C99.5966 116.201 99.5708 116.227 99.5708 116.253C99.5708 116.278 99.5966 116.304 99.6224 116.304V116.201ZM99.674 116.098L99.7255 116.15L99.7771 116.098H99.674V116.098ZM101.659 115.582C101.504 115.582 101.247 115.892 101.247 115.995C101.427 115.995 101.659 116.046 101.659 115.582ZM94.0535 113.571L94.0019 113.597H94.0792L94.0535 113.571ZM103.387 113.571C103.387 113.546 103.361 113.546 103.361 113.546C103.335 113.546 103.335 113.546 103.335 113.571C103.335 113.597 103.335 113.597 103.361 113.597C103.361 113.597 103.387 113.597 103.387 113.571ZM103.412 113.468C103.412 113.442 103.412 113.442 103.387 113.442V113.52C103.412 113.52 103.412 113.494 103.412 113.468ZM103.825 113.133C103.799 113.133 103.799 113.159 103.799 113.185C103.799 113.185 103.799 113.21 103.825 113.21C103.851 113.21 103.851 113.185 103.851 113.185C103.851 113.159 103.851 113.133 103.825 113.133ZM99.7255 109.163C99.7255 109.137 99.6997 109.137 99.6997 109.137C99.674 109.137 99.674 109.137 99.674 109.163C99.674 109.188 99.674 109.188 99.6997 109.188C99.6997 109.188 99.7255 109.188 99.7255 109.163ZM98.72 109.085V109.111H98.7716L98.72 109.085ZM96.5801 108.028C96.5801 108.131 96.709 108.518 96.7864 108.518L96.9153 108.57H100.525C100.757 108.57 101.015 108.338 101.015 107.951C101.015 107.822 100.963 107.616 100.963 107.487C100.963 107.409 101.015 107.255 101.015 107.1C101.015 106.842 100.937 106.584 100.937 106.378C100.937 106.404 100.834 105.785 100.319 105.347C100.319 105.373 100.319 105.373 100.293 105.373C100.241 105.373 99.8544 104.96 99.2872 104.96C97.5856 104.96 97.9981 104.986 96.9411 105.708C96.8895 106.584 96.5801 105.295 96.5801 108.028V108.028ZM96.6574 105.553L96.6059 105.579H96.709L96.6574 105.553ZM99.5193 104.625C99.5193 104.651 99.4935 104.651 99.4935 104.676C99.4935 104.702 99.5708 104.728 99.6224 104.728C99.6482 104.728 99.6482 104.728 99.674 104.676C99.6224 104.651 99.5708 104.625 99.5451 104.625H99.5193V104.625ZM98.1013 104.676C98.1013 104.651 98.0755 104.651 98.0497 104.651C98.0497 104.651 98.0239 104.651 98.0239 104.676C98.0239 104.702 98.0497 104.728 98.0497 104.728C98.0755 104.728 98.1013 104.702 98.1013 104.676ZM99.9834 104.676C99.9834 104.651 99.9576 104.651 99.906 104.651C99.8802 104.651 99.8544 104.651 99.8544 104.676C99.8544 104.702 99.8802 104.728 99.906 104.728C99.9576 104.728 99.9834 104.702 99.9834 104.676ZM110.374 116.511C109.806 116.511 109.291 116.175 108.724 116.124C108.569 116.124 108.311 115.711 107.95 115.711C107.77 115.711 107.512 115.17 107.228 115.17C106.764 114.68 106.919 114.86 106.893 114.783V114.809C106.893 114.783 106.841 114.706 106.223 114.087C106.223 113.881 105.939 113.778 105.681 113.133C105.681 113.107 105.707 113.107 105.707 113.081C105.707 112.978 105.088 111.973 105.088 110.529C105.088 109.601 105.372 109.111 105.372 108.389C105.552 108.183 105.578 108.106 105.578 108.054C105.578 108.028 105.527 108.028 105.527 107.977C105.527 107.899 105.604 107.719 106.016 107.177C106.016 106.842 106.326 106.894 106.429 106.584V106.61C106.3 106.275 108.027 105.218 108.208 104.96L108.234 104.986C108.259 104.986 108.878 104.341 112.101 104.341C112.978 104.341 113.571 104.857 113.777 104.883C113.828 104.883 113.854 104.883 113.906 104.857C113.88 104.857 114.86 105.321 114.937 105.656C114.937 105.759 115.427 106.146 115.427 106.327C115.427 106.404 115.633 107.023 115.633 107.28C115.633 108.106 115.195 108.131 115.195 108.492C115.195 108.492 115.04 108.905 114.447 108.982C114.447 109.059 113.725 109.059 113.725 109.111C113.699 109.111 113.699 109.137 113.699 109.137C113.648 109.137 113.003 108.647 112.694 108.647L112.72 108.673C112.591 108.673 112.204 108.002 112.204 107.513C112.204 106.868 112.41 106.894 112.488 106.455C113.106 106.12 112.694 106.172 113.003 105.759C112.978 105.785 112.978 105.785 112.952 105.785C112.952 105.734 112.978 105.682 112.978 105.579C112.978 105.398 112.874 105.218 112.41 105.218C112.462 105.218 111.792 105.012 111.74 104.857C109.394 104.857 109.935 105.321 109.162 105.811C108.801 105.785 108.62 109.343 108.62 110.349C108.62 113.829 109.059 114.912 109.291 114.912C109.342 114.912 109.317 114.912 109.317 114.886C109.317 114.886 109.703 115.66 110.528 115.66C111.611 115.66 112.049 115.634 112.41 115.634C112.41 115.634 113.287 115.531 113.725 114.912C114.06 114.912 114.885 113.881 114.885 113.442C115.375 112.334 115.324 112.282 115.736 112.282C115.736 112.282 115.736 112.308 115.762 112.308C115.762 112.308 115.814 112.282 115.839 112.282C115.943 112.282 116.046 112.334 116.046 112.566C116.046 113.674 115.633 113.546 115.478 114.139V114.113C115.427 114.113 115.117 114.938 114.782 115.092C114.576 115.299 114.396 115.247 113.571 116.072C112.952 116.227 112.771 116.253 112.694 116.33H112.256C112.23 116.33 112.281 116.227 112.204 116.227C112.178 116.227 111.998 116.227 111.998 116.253C111.998 116.278 112.024 116.304 112.101 116.33C111.972 116.511 111.869 116.562 111.74 116.588V116.511H111.379L111.328 116.588L111.25 116.536L111.302 116.511C111.095 116.511 111.07 116.511 111.044 116.536C110.786 116.536 110.838 116.536 110.735 116.511C110.735 116.511 110.709 116.511 110.683 116.536L110.374 116.511ZM110.322 116.304C110.399 116.304 110.477 116.356 110.502 116.33C110.502 116.304 110.477 116.278 110.477 116.253C110.374 116.253 110.374 116.253 110.322 116.304ZM112.462 116.227C112.436 116.227 112.41 116.253 112.41 116.278C112.41 116.278 112.436 116.304 112.462 116.304L112.488 116.278C112.488 116.253 112.462 116.227 112.462 116.227ZM110.683 115.918V116.072L110.709 115.969L110.683 115.918ZM113.416 115.866C113.287 115.866 113.261 115.918 113.261 115.995C113.261 116.021 113.235 116.098 113.287 116.098C113.313 116.098 113.416 115.995 113.416 115.866V115.866ZM112.694 115.763V115.814C112.694 115.814 112.823 115.866 112.874 115.866L112.952 115.84C112.952 115.737 112.849 115.763 112.694 115.763ZM112.333 115.814C112.307 115.814 112.281 115.84 112.281 115.84C112.281 115.84 112.307 115.866 112.333 115.866V115.814ZM113.493 115.763C113.519 115.789 113.571 115.814 113.571 115.814C113.622 115.814 113.699 115.763 113.725 115.711C113.519 115.711 113.493 115.685 113.493 115.763ZM113.261 115.711V115.763V115.685V115.711ZM113.21 115.634C113.184 115.634 113.158 115.634 113.158 115.66H113.21H113.235C113.235 115.634 113.235 115.634 113.21 115.634ZM113.571 115.376C113.545 115.376 113.519 115.402 113.519 115.428C113.519 115.428 113.545 115.453 113.571 115.453C113.596 115.453 113.596 115.428 113.596 115.428C113.596 115.402 113.596 115.376 113.571 115.376ZM114.267 114.86C114.344 114.912 114.396 114.912 114.447 114.912L114.37 114.757C114.292 114.757 114.267 114.783 114.267 114.86V114.86ZM114.834 114.267C114.834 114.293 114.885 114.293 114.885 114.293L114.834 114.267ZM106.274 113.236C106.248 113.236 106.223 113.262 106.223 113.288H106.274H106.3C106.3 113.262 106.3 113.236 106.274 113.236ZM105.887 112.901V112.927L105.939 112.901H105.887ZM115.736 112.721C115.736 112.772 115.762 112.875 115.788 112.875C115.814 112.875 115.814 112.849 115.814 112.824C115.814 112.798 115.788 112.772 115.736 112.695V112.721ZM115.427 112.721V112.824C115.453 112.798 115.478 112.772 115.478 112.721H115.427ZM115.582 112.385V112.437H115.736V112.385H115.582ZM105.475 111.612C105.449 111.612 105.423 111.638 105.423 111.663C105.423 111.663 105.449 111.689 105.475 111.689C105.501 111.689 105.501 111.663 105.501 111.663C105.501 111.638 105.501 111.612 105.475 111.612ZM105.269 110.735V110.761H105.32L105.269 110.735ZM105.398 109.756C105.372 109.781 105.346 109.781 105.346 109.781C105.346 109.807 105.372 109.833 105.398 109.833C105.398 109.833 105.398 109.807 105.423 109.781L105.398 109.756ZM105.398 109.575H105.372C105.372 109.601 105.372 109.601 105.398 109.601C105.398 109.601 105.423 109.601 105.423 109.575H105.398ZM114.267 108.956C114.241 108.956 114.241 108.982 114.241 109.008C114.241 109.008 114.241 109.034 114.267 109.034C114.292 109.034 114.292 109.008 114.292 109.008C114.292 108.982 114.292 108.956 114.267 108.956ZM113.906 108.827C113.88 108.827 113.854 108.853 113.854 108.879C113.854 108.879 113.88 108.905 113.906 108.905C113.932 108.905 113.932 108.879 113.932 108.879C113.932 108.853 113.932 108.827 113.906 108.827ZM112.41 107.719C112.385 107.719 112.359 107.719 112.359 107.745C112.359 107.77 112.385 107.796 112.41 107.796C112.436 107.796 112.436 107.77 112.436 107.745C112.436 107.719 112.436 107.719 112.41 107.719ZM115.427 107.667C115.324 107.667 115.298 107.719 115.272 107.796C115.35 107.822 115.427 107.719 115.427 107.667ZM112.41 107.177C112.385 107.177 112.359 107.203 112.359 107.229C112.359 107.229 112.385 107.255 112.41 107.255C112.436 107.255 112.436 107.229 112.436 107.229C112.436 107.203 112.436 107.177 112.41 107.177ZM115.324 106.765C115.195 106.765 115.221 106.816 115.221 106.868C115.298 106.842 115.35 106.791 115.324 106.765ZM114.164 105.295C114.138 105.295 114.112 105.321 114.112 105.347C114.112 105.373 114.138 105.398 114.164 105.398C114.189 105.398 114.189 105.373 114.189 105.347C114.189 105.321 114.189 105.295 114.164 105.295ZM113.493 105.244C113.467 105.244 113.467 105.269 113.467 105.269C113.467 105.295 113.467 105.295 113.493 105.295V105.244ZM108.595 105.166L108.517 105.218H108.724C108.724 105.218 108.62 105.166 108.595 105.166ZM113.571 105.166C113.545 105.166 113.519 105.192 113.519 105.218C113.519 105.218 113.545 105.244 113.571 105.244C113.596 105.244 113.596 105.218 113.596 105.218C113.596 105.192 113.596 105.166 113.571 105.166ZM109.677 104.805C109.781 104.909 109.858 105.012 109.935 105.089C109.935 104.909 110.064 104.805 110.245 104.805L110.167 104.702C109.858 104.702 109.781 104.78 109.677 104.805ZM113.261 104.96V105.012C113.287 105.012 113.287 105.012 113.287 104.986C113.287 104.986 113.287 104.96 113.261 104.96ZM111.534 104.496C111.353 104.496 111.379 104.651 111.379 104.702H111.585C111.585 104.676 111.56 104.522 111.534 104.496V104.496ZM120.841 115.943C120.815 115.943 120.841 115.918 120.893 115.789C120.738 115.685 120.712 115.453 120.686 115.453C120.532 115.453 120.48 115.943 120.506 115.995C120.377 115.995 119.939 115.763 119.939 115.711C119.939 115.685 119.965 115.789 119.861 115.789C119.758 115.789 119.475 115.634 118.675 114.835C118.547 114.68 118.366 114.525 118.366 114.474C118.392 114.396 117.902 114.113 117.902 113.829C117.593 113.674 117.489 113.03 117.206 112.798H117.232C117.232 112.798 116.69 111.87 116.69 110.838C116.69 110.735 116.742 110.142 116.742 110.013C116.742 108.853 117.464 108.286 117.464 107.848C117.464 107.564 118.186 107.1 118.469 106.378C118.469 106.275 119.526 105.424 119.578 105.373C119.965 105.373 120.171 104.78 120.712 104.78C120.919 104.831 121.847 104.367 122.362 104.367H123.574C123.755 104.367 124.012 104.496 124.322 104.496C124.296 104.496 124.296 104.47 124.296 104.47C124.348 104.47 124.683 104.676 125.147 104.754C125.147 104.728 125.173 104.728 125.198 104.728C125.353 104.728 125.662 105.037 125.791 105.063C125.791 105.063 125.946 105.192 126.848 105.862L126.823 105.888C126.823 105.888 127.055 105.862 128.06 107.1C128.292 107.59 128.55 107.899 128.73 108.363C128.782 108.415 129.169 109.163 129.169 109.859C129.169 111.792 128.524 112.205 128.473 113.133C128.498 113.314 128.112 113.417 128.06 113.803C128.06 113.932 127.648 114.139 127.106 114.912C127.003 114.912 126.127 115.789 125.946 115.789C125.946 115.763 125.92 115.737 125.894 115.737C125.791 115.737 125.456 116.201 124.941 116.201L124.837 116.15C124.631 116.15 124.683 116.407 124.373 116.407C124.038 116.407 124.09 116.33 123.909 116.33C123.909 116.588 123.677 116.382 123.574 116.588H122.259C121.821 116.433 120.815 116.588 120.841 115.943V115.943ZM123.316 116.459L123.368 116.485L123.419 116.459L123.368 116.407L123.316 116.459ZM124.528 116.253C124.476 116.253 124.451 116.278 124.399 116.278L124.425 116.304C124.451 116.304 124.476 116.278 124.58 116.253H124.528ZM125.43 115.84C125.405 115.84 125.353 115.892 125.327 115.918H125.43V115.84ZM122.079 115.685C122.337 115.685 122.465 115.84 122.93 115.866C122.93 115.789 122.955 115.84 123.471 115.737C123.523 115.737 123.755 115.789 123.78 115.789C123.987 115.789 123.832 115.634 124.27 115.634C124.863 115.221 124.76 115.453 125.327 114.319V114.345C125.353 114.345 125.559 112.282 125.559 111.947C125.559 111.767 125.43 111.663 125.43 111.509L125.482 111.354C125.456 111.251 125.405 111.096 125.405 111.019C125.405 110.555 125.611 110.658 125.611 110.117C125.611 108.028 125.456 107.384 125.25 106.378C125.25 105.295 123.213 105.166 123.058 105.063C122.182 105.166 121.615 105.089 121.047 105.682C121.047 105.682 120.635 105.991 120.635 106.481C120.635 107.306 120.326 107.358 120.326 108.028C120.326 108.698 120.3 109.807 120.3 109.988C120.3 113.906 120.454 113.649 120.712 114.474C120.738 114.474 120.97 115.685 122.053 115.685H122.079V115.685ZM124.451 115.789C124.425 115.789 124.399 115.814 124.399 115.84C124.399 115.866 124.425 115.892 124.451 115.892C124.451 115.892 124.476 115.866 124.476 115.84C124.476 115.814 124.451 115.789 124.451 115.789ZM125.095 115.685C125.095 115.685 125.069 115.711 125.069 115.737C125.069 115.763 125.095 115.789 125.095 115.789C125.121 115.789 125.121 115.763 125.121 115.737C125.121 115.711 125.121 115.685 125.095 115.685ZM117.438 112.849C117.438 112.824 117.412 112.824 117.412 112.824C117.386 112.824 117.386 112.824 117.386 112.849C117.386 112.875 117.386 112.901 117.412 112.901C117.412 112.901 117.438 112.875 117.438 112.849ZM117.309 110.349C117.283 110.349 117.257 110.374 117.257 110.4C117.257 110.4 117.283 110.426 117.309 110.426C117.335 110.426 117.335 110.4 117.335 110.4C117.335 110.374 117.335 110.349 117.309 110.349ZM117 110.142C116.974 110.142 116.974 110.168 116.974 110.194C116.974 110.194 116.974 110.22 117 110.22C117.025 110.22 117.025 110.194 117.025 110.194C117.025 110.168 117.025 110.142 117 110.142ZM125.637 105.424C125.534 105.424 125.534 105.476 125.482 105.476C125.559 105.476 125.637 105.502 125.637 105.424ZM124.631 104.96C124.605 105.012 124.657 105.012 124.734 105.037C124.76 105.037 124.812 105.037 124.837 105.012C124.76 104.986 124.683 104.96 124.657 104.96H124.631V104.96ZM121.099 104.909L121.125 104.883L121.099 104.909ZM122.104 104.625C122.156 104.599 121.95 104.651 121.898 104.676V104.754C122.027 104.754 122.104 104.78 122.104 104.625ZM122.311 104.676V104.754C122.337 104.754 122.337 104.728 122.337 104.728C122.337 104.702 122.337 104.676 122.311 104.676V104.676ZM130.484 116.278L130.355 116.124V115.685C130.355 115.634 130.535 115.453 130.561 115.428H132.263C132.34 115.376 132.443 115.299 132.469 115.221V113.752C132.52 113.752 132.546 113.674 132.546 113.623C132.546 113.571 132.469 113.236 132.469 113.133V106.12C132.469 105.734 132.314 105.682 132.211 105.527H131.154C131.051 105.579 130.974 105.579 130.922 105.579C130.071 105.579 130.045 105.424 130.045 105.192C130.045 104.728 131.18 104.676 131.953 104.676C132.52 104.676 132.546 104.702 133.113 104.702C134.686 104.702 134.635 104.573 134.97 104.573C135.228 104.573 135.589 104.573 135.589 105.115C135.589 105.218 135.692 105.837 135.692 105.914C135.692 105.914 135.692 105.991 135.64 106.043C135.64 106.43 135.692 106.636 135.821 106.636C135.975 106.636 136.182 106.223 136.285 106.043C136.285 105.837 137.264 105.063 137.419 104.909C137.625 104.909 138.244 104.47 138.657 104.47C139.275 104.47 139.404 104.496 139.688 104.496C139.972 104.496 141.235 105.141 141.235 105.914V106.739C141.235 107.306 140.925 107.435 140.642 107.745C140.461 107.796 139.997 108.234 139.688 108.234C138.502 108.234 137.832 107.28 137.832 106.249C137.986 106.327 137.625 106.043 137.625 105.94C137.058 105.94 136.8 106.842 136.491 106.842C136.388 106.842 136.233 107.384 136.13 107.487C136.104 108.312 135.692 107.925 135.692 109.188V110.374L135.743 110.529C135.743 110.71 135.692 110.813 135.692 110.967C135.692 111.225 135.795 113.855 135.795 114.989C135.795 115.247 136.001 115.221 136.001 115.428C136.878 115.428 137.058 115.376 137.29 115.376C138.141 115.376 138.244 115.402 138.244 115.892C138.218 115.918 138.244 116.021 138.167 116.072V116.046C138.115 116.046 137.857 116.304 137.522 116.304C136.929 116.304 137.548 116.201 136.027 116.201C135.692 116.201 134.789 116.253 134.789 116.253H134.274C134.274 116.253 134.016 116.201 133.913 116.201C133.784 116.201 133.113 116.253 133.113 116.253L131.644 116.278C131.463 116.278 131.257 116.407 131.206 116.407C130.974 116.407 130.742 116.278 130.484 116.278V116.278ZM130.432 115.84C130.432 115.943 130.561 116.175 130.561 116.201H130.69C130.69 116.124 130.535 115.866 130.432 115.84V115.84ZM131.18 116.072C131.18 116.201 131.309 116.15 131.335 116.201C131.386 116.201 131.489 116.15 131.489 116.15C131.412 116.15 131.283 116.072 131.18 116.072V116.072ZM132.314 116.124V116.15H132.34L132.314 116.124ZM131.85 116.072C131.824 116.072 131.799 116.098 131.799 116.098C131.799 116.124 131.824 116.124 131.85 116.124C131.876 116.124 131.876 116.124 131.876 116.098C131.876 116.098 131.876 116.072 131.85 116.072ZM137.625 116.046C137.625 116.098 137.625 116.124 137.703 116.124C137.78 116.124 137.832 116.098 137.857 115.995C137.857 115.969 137.857 115.969 137.832 115.918C137.78 116.072 137.754 116.046 137.625 116.046V116.046ZM136.439 116.046C136.465 116.072 136.517 116.072 136.491 116.098C136.517 116.098 136.568 116.072 136.594 115.995L136.543 115.918C136.465 115.943 136.517 115.995 136.439 116.046V116.046ZM138.064 115.737C138.012 115.763 138.012 115.789 138.012 115.84H138.064V115.737ZM131.231 115.737V115.789H131.283V115.737H131.231ZM130.69 115.685C130.69 115.66 130.664 115.66 130.664 115.66C130.638 115.66 130.638 115.66 130.638 115.685H130.69V115.685ZM140.023 107.951C139.946 107.977 139.868 108.002 139.868 108.028L140.023 108.002V107.951V107.951ZM140.565 107.409L140.59 107.538L140.642 107.435V107.409H140.565ZM131.051 105.476C131.051 105.45 131.051 105.45 131.025 105.45C130.999 105.45 130.974 105.45 130.974 105.476H131.025H131.051ZM131.283 105.321C131.231 105.347 131.206 105.373 131.206 105.398L131.231 105.424H131.283V105.321ZM131.489 105.321C131.541 105.373 131.515 105.398 131.541 105.373V105.321H131.489ZM131.747 105.373C131.747 105.347 131.747 105.347 131.721 105.347C131.721 105.347 131.695 105.347 131.695 105.373C131.695 105.398 131.721 105.424 131.721 105.424C131.747 105.424 131.747 105.398 131.747 105.373ZM130.638 105.012L130.767 105.166C130.793 105.166 130.896 105.141 130.974 105.115C131.128 105.115 131.309 105.166 131.36 105.166C131.412 105.166 131.541 105.141 131.541 105.063C131.438 104.986 131.18 104.96 130.69 104.96L130.638 105.012ZM130.277 105.063L130.329 105.115C130.355 105.115 130.355 105.115 130.381 105.063L130.355 105.037L130.277 105.063ZM135.279 104.831C135.228 104.857 135.176 104.831 135.176 104.96V105.012C135.279 105.012 135.279 104.857 135.279 104.831V104.831ZM141.776 111.586C141.776 111.199 141.725 110.813 141.725 110.477C141.725 109.833 141.802 109.549 141.802 109.317C141.776 109.317 141.751 109.317 141.751 109.291C141.751 109.163 142.06 108.776 142.06 108.544C142.06 108.518 142.034 108.466 142.034 108.441C142.034 108.441 142.034 108.466 142.06 108.466C142.137 108.466 142.266 107.693 142.498 107.487V107.513C142.524 107.513 142.704 106.739 142.962 106.739L142.911 106.791C142.936 106.791 143.504 106.249 143.504 106.069C143.504 105.888 144.071 105.759 144.2 105.45C144.638 105.45 144.535 104.857 145.154 104.857C145.979 104.857 146.108 104.419 146.726 104.419C147.603 104.419 147.655 104.496 148.041 104.496L147.99 104.548C148.428 104.548 149.279 105.244 149.382 105.244C149.382 105.244 149.408 105.218 149.434 105.218C149.485 105.218 149.588 105.321 150.027 105.811C150.233 105.811 150.362 105.837 150.388 105.759V103.8L150.362 103.671C150.362 103.465 150.362 103.413 150.388 103.284V102.072C150.362 101.995 150.362 101.918 150.362 101.866C150.362 101.737 150.388 101.634 150.388 101.505V101.531C150.388 101.531 150.388 101.428 150.362 101.351C150.362 100.706 150.388 100.5 150.388 100.345C150.388 100.319 150.362 100.216 150.362 100.19V98.5403C150.388 98.3856 150.388 98.2309 150.388 98.0762C150.388 97.5864 150.336 97.1996 149.717 97.1996C149.563 97.1996 149.459 97.2254 149.356 97.277H148.763L148.737 97.3801H148.557C148.351 97.3801 147.732 97.3801 147.732 97.0192C147.732 96.8645 147.706 96.452 148.351 96.452C148.402 96.452 148.609 96.5035 148.66 96.5035C151.393 96.5035 152.012 96.452 152.631 96.452C153.12 96.452 153.404 96.4004 153.507 96.7356V100.345C153.507 100.448 153.456 100.809 153.456 100.912C153.456 102.356 153.559 106.017 153.559 106.223L153.61 112.643L153.559 112.721V115.17L153.765 115.376H155.209C155.312 115.376 155.673 115.376 155.673 115.711C155.673 116.15 155.544 116.227 155.183 116.227C153.636 116.227 153.945 116.253 152.863 116.253C152.785 116.253 152.682 116.227 152.631 116.227C151.78 116.227 151.419 116.33 150.981 116.33C150.981 116.227 150.439 116.33 150.439 116.124V115.299C150.413 115.196 150.362 115.015 150.181 115.015C149.588 115.531 149.588 115.531 149.408 115.763C149.15 115.763 148.944 116.227 148.66 116.227C147.5 116.227 147.784 116.536 147.345 116.536C147.294 116.536 147.319 116.536 147.294 116.485H146.83C146.804 116.536 146.752 116.536 146.701 116.536C146.52 116.536 146.469 116.433 146.237 116.433C144.973 116.382 145.051 116.15 144.2 115.582C144.2 115.428 143.22 114.654 143.194 114.654C142.55 114.01 142.859 113.855 142.266 113.133C142.266 112.849 141.776 112.179 141.776 111.586V111.586ZM146.288 116.227C146.262 116.227 146.237 116.253 146.237 116.278C146.237 116.304 146.262 116.33 146.288 116.33C146.314 116.33 146.314 116.304 146.314 116.278C146.314 116.253 146.314 116.227 146.288 116.227ZM147.655 116.227L147.577 116.278C147.629 116.278 147.655 116.278 147.706 116.227H147.655V116.227ZM146.159 116.227C146.133 116.227 146.133 116.227 146.133 116.253C146.133 116.253 146.133 116.278 146.159 116.278C146.185 116.278 146.185 116.253 146.185 116.253C146.185 116.227 146.185 116.227 146.159 116.227ZM146.237 116.227C146.211 116.227 146.211 116.227 146.211 116.253C146.211 116.253 146.211 116.278 146.237 116.278C146.262 116.278 146.262 116.253 146.262 116.253C146.262 116.227 146.262 116.227 146.237 116.227ZM148.248 116.175C148.196 116.175 148.17 116.201 148.144 116.227C148.222 116.227 148.248 116.227 148.299 116.175H148.248ZM151.135 116.175C151.109 116.175 151.084 116.201 151.084 116.227H151.135H151.161C151.161 116.201 151.161 116.175 151.135 116.175ZM151.032 116.124C151.006 116.124 150.981 116.15 150.981 116.175C150.981 116.201 151.006 116.227 151.032 116.227C151.058 116.227 151.058 116.201 151.058 116.175C151.058 116.15 151.058 116.124 151.032 116.124ZM154.667 116.175C154.667 116.15 154.616 116.15 154.564 116.15C154.513 116.15 154.461 116.15 154.461 116.175C154.461 116.201 154.513 116.227 154.564 116.227C154.59 116.227 154.642 116.201 154.667 116.175ZM155.131 116.072C155.08 116.098 155.054 116.124 155.054 116.15L155.08 116.175C155.157 116.175 155.235 116.175 155.286 116.124C155.26 116.098 155.183 116.072 155.131 116.072V116.072ZM145.566 116.072C145.54 116.072 145.54 116.098 145.54 116.124C145.54 116.15 145.54 116.175 145.566 116.175C145.592 116.175 145.592 116.15 145.592 116.124C145.592 116.098 145.592 116.072 145.566 116.072ZM148.531 116.046C148.505 116.046 148.505 116.072 148.505 116.098C148.505 116.098 148.505 116.124 148.531 116.124V116.046ZM148.505 115.995C148.48 115.995 148.454 116.021 148.454 116.046C148.454 116.046 148.48 116.072 148.505 116.072L148.531 116.046C148.531 116.021 148.505 115.995 148.505 115.995ZM148.763 115.866C148.712 115.892 148.686 115.995 148.66 116.046C148.789 116.046 148.763 116.046 148.815 115.995C148.815 115.943 148.815 115.918 148.763 115.866ZM148.402 115.84L148.351 115.918H148.402V115.84ZM155.286 115.763C155.338 115.763 155.441 115.789 155.492 115.789C155.492 115.711 155.415 115.66 155.338 115.66C155.286 115.711 155.286 115.737 155.286 115.763V115.763ZM146.288 115.66C146.417 115.711 146.907 115.763 147.036 115.763C147.294 115.763 147.964 115.685 148.093 115.634C148.093 115.634 148.866 115.067 148.97 115.067C148.995 115.067 148.995 115.118 148.995 115.092C148.995 115.092 149.098 115.015 149.614 114.499C149.64 113.803 150.233 114.035 150.233 113.262C150.233 113.262 150.284 112.437 150.388 112.282C150.388 112.231 150.362 112.05 150.362 111.973C150.362 111.921 150.388 111.818 150.388 111.767V108.183C150.388 107.796 150.13 107.177 150.13 107.126C150.13 107.048 150.181 107.048 150.181 106.971V106.997C150.156 106.997 149.923 106.223 148.892 105.708C148.841 105.708 148.505 105.244 147.655 105.244C146.752 105.244 146.752 105.321 146.366 105.321C145.283 105.321 145.36 109.266 145.283 109.266C145.283 109.962 145.334 109.962 145.334 110.271C145.334 110.606 145.231 110.864 145.231 111.019C145.231 111.406 145.334 111.431 145.334 111.895C145.334 112.076 145.257 112.308 145.257 112.488C145.257 112.514 145.283 112.695 145.283 112.695C145.283 112.695 145.283 112.746 145.257 112.798C145.257 113.623 145.412 114.061 145.412 114.474C145.412 114.525 145.773 115.582 146.288 115.66V115.66ZM149.098 115.711C149.073 115.711 149.073 115.737 149.073 115.763C149.073 115.763 149.073 115.789 149.098 115.789C149.124 115.789 149.124 115.763 149.124 115.763C149.124 115.737 149.124 115.711 149.098 115.711ZM149.305 115.634C149.305 115.608 149.305 115.608 149.279 115.608V115.66C149.305 115.66 149.305 115.66 149.305 115.634ZM145.566 104.96C145.566 105.089 145.721 105.218 145.773 105.244C145.773 105.012 145.979 105.037 145.979 104.883C145.979 104.857 145.979 104.857 145.927 104.857C145.85 104.857 145.695 104.986 145.618 104.986C145.592 104.986 145.566 104.986 145.566 104.96V104.96ZM150.568 100.268C150.542 100.268 150.516 100.293 150.516 100.293C150.516 100.319 150.542 100.319 150.568 100.319C150.594 100.319 150.594 100.319 150.594 100.293C150.594 100.293 150.594 100.268 150.568 100.268ZM150.645 100.061C150.62 100.061 150.62 100.087 150.62 100.087C150.62 100.113 150.62 100.113 150.645 100.113C150.645 100.113 150.671 100.113 150.671 100.087L150.645 100.061ZM150.645 98.9013C150.62 98.9013 150.62 98.927 150.62 98.9528C150.62 98.9528 150.62 98.9786 150.645 98.9786L150.671 98.9528C150.671 98.927 150.645 98.9013 150.645 98.9013ZM150.568 97.7411C150.542 97.7411 150.516 97.7411 150.516 97.7668H150.568H150.594C150.594 97.7411 150.594 97.7411 150.568 97.7411ZM150.568 97.5606C150.542 97.5606 150.516 97.5864 150.516 97.6122C150.516 97.6379 150.542 97.6637 150.568 97.6637C150.594 97.6637 150.594 97.6379 150.594 97.6122C150.594 97.5864 150.594 97.5606 150.568 97.5606ZM149.098 97.0192C149.098 96.9934 149.098 96.9934 149.073 96.9934V97.0707C149.098 97.0707 149.098 97.0449 149.098 97.0192ZM150.284 96.9676C150.259 96.9676 150.233 96.9676 150.233 96.9934C150.233 96.9934 150.259 97.0192 150.284 97.0192L150.31 96.9934C150.31 96.9676 150.284 96.9676 150.284 96.9676ZM147.938 96.8645C147.912 96.8645 147.912 96.8902 147.912 96.916C147.912 96.9418 147.912 96.9676 147.938 96.9676C147.964 96.9676 147.964 96.9418 147.964 96.916C147.964 96.8902 147.964 96.8645 147.938 96.8645ZM153.043 96.916L153.095 96.9676C153.172 96.916 153.249 96.8645 153.249 96.7613C153.069 96.7613 153.069 96.8387 153.043 96.916V96.916ZM149.073 96.7098C149.047 96.7098 149.021 96.7356 149.021 96.7356C149.021 96.7356 149.047 96.7613 149.073 96.7613L149.098 96.7356L149.073 96.7098ZM153.172 96.6066V96.7098H153.224V96.6066H153.172ZM156.343 115.995C156.343 115.505 156.704 115.453 157.014 115.453C157.117 115.453 157.968 115.531 157.993 115.531C158.2 115.531 158.303 115.428 158.457 115.428C158.535 114.345 158.561 113.21 158.561 112.411C158.561 112.36 158.509 111.483 158.509 111.225C158.509 111.225 158.561 110.22 158.561 110.245C158.561 110.142 158.509 109.524 158.509 109.446C158.509 109.24 158.561 109.008 158.561 108.776C158.561 108.724 158.509 107.951 158.509 107.977C158.509 107.873 158.561 107.461 158.561 107.358C158.561 105.888 158.586 105.476 158.071 105.476C156.988 105.476 156.936 105.502 156.601 105.502C156.214 105.502 156.163 105.45 156.163 105.192C156.163 104.78 156.498 104.728 157.091 104.728H158.328C158.38 104.728 158.457 104.78 158.509 104.78C159.721 104.78 159.386 104.599 161.01 104.599C161.809 104.599 161.5 104.78 161.654 105.192V114.628L161.706 115.299C161.732 115.402 161.912 115.505 162.222 115.505C162.35 115.505 162.531 115.453 162.66 115.453C162.66 115.479 162.686 115.479 162.763 115.479C162.866 115.479 163.072 115.453 163.279 115.453C163.562 115.453 163.82 115.479 163.82 115.634C163.82 116.175 163.33 116.253 162.892 116.253C162.067 116.253 161.835 116.098 161.809 116.098C161.577 116.098 161.99 116.304 160.829 116.304C160.804 116.278 160.314 116.201 159.953 116.201C159.798 116.201 159.334 116.304 159.179 116.304C158.999 116.304 158.947 116.201 158.767 116.201C158.689 116.227 158.38 116.33 158.225 116.33C158.019 116.33 157.607 116.33 157.607 116.15C157.4 116.15 157.581 116.33 157.271 116.33C157.194 116.33 157.117 116.253 157.014 116.253C156.988 116.253 156.859 116.304 156.807 116.304C156.704 116.304 156.421 116.253 156.343 115.995V115.995ZM157.168 115.892C157.168 116.021 157.22 116.175 157.4 116.175C157.4 115.892 157.271 115.969 157.168 115.892ZM157.091 116.098C157.065 116.098 157.065 116.124 157.065 116.124C157.065 116.15 157.065 116.15 157.091 116.15C157.117 116.15 157.117 116.15 157.117 116.124C157.117 116.124 157.117 116.098 157.091 116.098ZM157.916 116.046C157.916 116.124 157.942 116.124 157.968 116.15L158.019 116.098C158.019 116.098 158.019 116.046 157.968 115.995L157.916 116.046ZM162.969 116.046V116.098H163.021V116.046H162.969ZM156.498 115.892C156.524 115.943 156.549 115.995 156.678 115.995C156.704 115.995 156.73 115.969 156.807 115.918C156.807 115.866 156.73 115.789 156.704 115.763C156.704 115.789 156.498 115.84 156.498 115.892ZM162.454 115.84C162.428 115.84 162.402 115.866 162.402 115.892C162.402 115.918 162.428 115.918 162.454 115.918C162.479 115.918 162.479 115.918 162.479 115.892C162.479 115.866 162.479 115.84 162.454 115.84ZM163.665 115.763V115.892H163.743V115.763H163.665ZM163.614 115.685H163.562C163.562 115.711 163.588 115.711 163.614 115.711C163.64 115.711 163.64 115.711 163.64 115.685H163.614ZM160.829 107.152C160.829 107.177 160.804 107.177 160.804 107.203C160.804 107.229 160.829 107.229 160.881 107.255C160.932 107.229 161.01 107.152 161.01 107.126C161.01 107.1 160.984 107.1 160.958 107.1C160.907 107.1 160.829 107.152 160.829 107.152V107.152ZM159.437 105.244V105.347H159.463C159.463 105.321 159.463 105.269 159.437 105.244ZM161.371 105.218V105.295L161.448 105.347L161.371 105.218ZM158.457 105.012C158.457 105.166 158.457 105.166 158.509 105.244C158.561 105.244 158.561 105.192 158.586 105.141C158.561 105.063 158.535 105.012 158.457 105.012V105.012ZM159.025 105.037C159.025 105.244 159.025 105.166 159.128 105.218C159.128 105.037 159.102 105.037 159.025 105.037ZM161.036 105.037C161.036 105.063 161.01 105.063 161.01 105.089C161.01 105.115 161.036 105.115 161.087 105.141L161.19 105.012L161.165 104.986C161.061 104.986 161.01 104.986 161.036 105.037V105.037ZM161.448 105.037C161.422 105.037 161.397 105.063 161.397 105.063C161.397 105.089 161.422 105.089 161.448 105.089C161.474 105.089 161.474 105.089 161.474 105.063C161.474 105.063 161.474 105.037 161.448 105.037ZM160.881 105.012C160.855 105.012 160.829 105.012 160.829 105.037C160.829 105.063 160.855 105.089 160.881 105.089V105.037V105.012ZM158.071 98.9013C158.071 98.7466 158.096 98.5661 158.174 98.2051V98.2309C158.2 98.2309 158.303 97.7411 158.457 97.7411C158.715 97.7411 158.561 97.1481 159.746 97.1481C160.907 97.1481 161.912 97.6379 161.912 99.0817C161.912 99.288 161.861 100.68 160.133 100.68C158.174 100.68 158.045 99.6489 158.045 99.1591C158.045 99.0044 158.071 98.927 158.071 98.9013ZM160.804 100.113C160.778 100.113 160.752 100.139 160.752 100.139C160.752 100.165 160.778 100.19 160.804 100.19C160.804 100.19 160.829 100.165 160.829 100.139L160.804 100.113ZM158.251 99.2106H158.225C158.225 99.2364 158.225 99.2364 158.251 99.2364C158.277 99.2364 158.277 99.2364 158.277 99.2106H158.251ZM161.293 98.0762C161.268 98.0762 161.242 98.0762 161.242 98.102H161.293H161.319C161.319 98.0762 161.319 98.0762 161.293 98.0762ZM161.01 97.7153C161.01 97.6895 160.984 97.6895 160.984 97.6895C160.958 97.6895 160.958 97.6895 160.958 97.7153C160.958 97.7411 160.958 97.7411 160.984 97.7411C160.984 97.7411 161.01 97.7411 161.01 97.7153ZM160.494 97.509C160.468 97.509 160.443 97.5348 160.443 97.5864C160.443 97.5864 160.468 97.6122 160.494 97.6122C160.52 97.6122 160.52 97.5864 160.52 97.5864C160.52 97.5348 160.52 97.509 160.494 97.509ZM159.437 97.3543C159.437 97.4059 159.437 97.4832 159.463 97.509C159.514 97.4832 159.566 97.4317 159.618 97.3543H159.437ZM160.417 97.4575C160.391 97.4575 160.391 97.4832 160.391 97.509C160.391 97.509 160.391 97.5348 160.417 97.5348V97.4575ZM164.594 115.84C164.594 115.84 164.568 115.814 164.568 115.763C164.568 115.66 164.697 115.453 165.496 115.453C165.547 115.453 165.754 115.505 165.883 115.505C166.501 115.505 166.579 115.247 166.579 114.448C166.579 114.061 166.527 113.984 166.527 113.881L166.579 111.586C166.579 111.019 166.553 110.117 166.63 110.065C166.63 109.73 166.527 109.317 166.527 109.111C166.527 108.595 166.579 108.441 166.579 108.209V105.991C166.579 105.656 166.244 105.527 165.96 105.527C165.883 105.605 165.393 105.579 165.161 105.656C164.594 105.656 164.542 105.682 164.362 105.424C164.387 105.012 164.361 104.78 164.851 104.78C164.954 104.78 165.754 104.831 165.831 104.831C167.069 104.831 168.77 104.831 169.26 104.676C169.673 104.728 169.724 105.089 169.724 105.424V105.759C169.724 105.759 169.724 105.914 169.776 105.914V106.584C169.802 106.61 169.802 106.662 170.034 106.662C170.111 106.662 170.162 106.636 170.162 106.584C170.162 106.61 170.188 106.61 170.188 106.61C170.317 106.61 170.42 105.862 170.859 105.63C170.833 105.63 170.833 105.63 170.833 105.605C170.833 105.553 171.245 105.502 171.374 105.218C171.374 105.192 171.864 104.986 171.941 104.857C172.406 104.651 173.179 104.625 173.669 104.548C173.695 104.548 174.339 104.548 174.494 104.625C174.726 104.625 175.989 104.857 175.989 105.012C176.144 105.166 177.149 105.424 177.149 106.069C177.253 106.739 177.536 105.914 177.536 108.002C177.536 108.028 177.485 108.492 177.485 108.518C177.485 111.045 177.536 112.746 177.536 115.092C177.536 115.402 177.897 115.453 177.923 115.453C178.078 115.453 178.155 115.428 178.31 115.428C178.8 115.428 179.367 115.402 179.367 115.685C179.367 116.253 179.289 116.278 178.98 116.278C178.722 116.278 178.387 116.253 178.207 116.253H174.056C173.411 116.253 173.024 116.33 172.999 116.33C172.586 116.33 172.302 116.227 172.302 115.763C172.302 115.221 174.21 115.763 174.21 115.221V115.247C174.21 115.247 174.339 113.674 174.339 113.056C174.339 113.056 174.313 112.334 174.313 112.153V107.1C174.262 107.074 174.21 106.765 174.21 106.636C174.21 106.61 174.03 105.862 173.385 105.63H172.431C172.302 105.682 172.122 105.759 171.838 105.837C171.581 105.837 171.4 106.301 171.091 106.43C170.936 106.61 170.678 106.662 170.369 107.616C170.523 107.616 170.162 107.641 170.162 108.054C170.162 108.312 170.137 108.389 169.802 109.472V113.468C169.802 113.623 169.776 113.803 169.776 113.958C169.776 114.01 169.802 114.757 169.802 115.118C169.776 115.118 169.75 115.144 169.75 115.144C169.75 115.247 170.162 115.505 170.162 115.479C170.472 115.479 170.807 115.453 171.142 115.453C171.323 115.453 171.632 115.531 171.632 115.685V116.15C170.73 116.33 169.26 116.33 168.667 116.33C168.435 116.33 168.203 116.278 167.687 116.278C167.352 116.278 166.862 116.33 166.759 116.33C166.733 116.33 166.012 116.278 165.934 116.278C165.934 116.253 165.986 116.124 166.037 116.072C166.037 116.072 166.037 116.046 165.986 115.995C165.857 116.046 165.78 116.201 165.702 116.201L165.78 116.278C165.78 116.382 165.573 116.382 165.522 116.382C165.393 116.382 164.594 116.562 164.594 115.84V115.84ZM170.395 116.124C170.369 116.124 170.369 116.15 170.369 116.15C170.369 116.175 170.369 116.201 170.395 116.201V116.124ZM173.411 115.943C173.463 116.046 173.463 116.098 173.463 116.201C173.54 116.098 173.592 116.072 173.643 115.943C173.643 115.918 173.54 115.84 173.514 115.84L173.411 115.943ZM174.262 116.15C174.236 116.15 174.081 116.15 174.107 116.15C174.107 116.175 174.133 116.201 174.185 116.201C174.21 116.201 174.262 116.175 174.262 116.15ZM178.851 116.124V116.15L178.903 116.124H178.851ZM170.369 116.072C170.343 116.072 170.317 116.098 170.317 116.124C170.317 116.15 170.343 116.15 170.369 116.15C170.369 116.15 170.395 116.15 170.395 116.124C170.395 116.098 170.369 116.072 170.369 116.072ZM178.439 116.124C178.439 116.098 178.387 116.098 178.335 116.098C178.284 116.098 178.232 116.098 178.232 116.124C178.258 116.15 178.284 116.15 178.335 116.15C178.361 116.15 178.413 116.15 178.439 116.124ZM179.16 115.634C178.954 115.634 178.954 115.943 178.954 116.046C179.006 115.943 179.057 115.892 179.212 115.737C179.212 115.685 179.186 115.66 179.16 115.634V115.634ZM171.22 115.892C171.142 115.943 171.323 115.943 171.555 115.943C171.323 115.918 171.4 115.789 171.323 115.737C171.271 115.789 171.194 115.84 171.194 115.866C171.194 115.892 171.194 115.892 171.22 115.892ZM177.072 115.918C177.046 115.918 177.046 115.918 177.046 115.943C177.046 115.969 177.046 115.995 177.072 115.995C177.098 115.995 177.098 115.969 177.098 115.943C177.098 115.918 177.098 115.918 177.072 115.918ZM164.8 115.84V115.918C164.826 115.918 164.826 115.892 164.826 115.84H164.8ZM166.321 115.84V115.892H166.424V115.84H166.321ZM174.417 115.84V115.892H174.468L174.417 115.84ZM178.361 115.737L178.49 115.789C178.542 115.789 178.567 115.789 178.619 115.737L178.567 115.685C178.516 115.685 178.49 115.685 178.361 115.737ZM178 115.737C178 115.711 177.974 115.711 177.974 115.711C177.949 115.711 177.949 115.711 177.949 115.737C177.949 115.763 177.949 115.789 177.974 115.789C177.974 115.789 178 115.763 178 115.737ZM166.733 114.499C166.708 114.499 166.682 114.525 166.682 114.525C166.682 114.551 166.708 114.577 166.733 114.577C166.759 114.577 166.759 114.551 166.759 114.525C166.759 114.525 166.759 114.499 166.733 114.499ZM167.069 111.019L167.12 111.045C167.146 111.045 167.146 111.019 167.146 110.967C167.12 110.967 167.094 110.993 167.069 111.019V111.019ZM166.733 110.013C166.708 110.013 166.682 110.039 166.682 110.039C166.682 110.065 166.708 110.065 166.733 110.065C166.759 110.065 166.759 110.065 166.759 110.039C166.759 110.039 166.759 110.013 166.733 110.013ZM167.12 108.905C167.094 108.905 167.069 108.931 167.069 108.956C167.069 108.956 167.094 108.982 167.12 108.982C167.146 108.982 167.146 108.956 167.146 108.956C167.146 108.931 167.146 108.905 167.12 108.905ZM176.582 105.837V105.94H176.634V105.837H176.582ZM176.273 105.63V105.708H176.324C176.324 105.656 176.324 105.656 176.273 105.63ZM165.367 105.476H165.393C165.419 105.476 165.315 105.476 165.315 105.476H165.367ZM166.45 105.476H166.579L166.527 105.424C166.45 105.424 166.45 105.45 166.45 105.476ZM175.835 105.373C175.835 105.476 175.989 105.476 176.041 105.476C175.963 105.45 175.938 105.398 175.912 105.321C175.886 105.321 175.86 105.347 175.835 105.373ZM166.837 105.244C166.966 105.244 167.043 105.295 167.12 105.373L167.198 105.321C167.094 105.321 167.146 105.115 167.069 105.063H167.094C167.043 105.063 166.837 105.063 166.837 105.244V105.244ZM169.363 105.321V105.373H169.389L169.363 105.321ZM164.594 105.037V105.321C164.619 105.321 164.645 105.295 164.697 105.244C164.697 105.037 164.671 105.063 164.594 105.037ZM171.89 105.244V105.321L171.967 105.244H171.89ZM165.161 105.166L165.264 105.218C165.367 105.218 165.419 105.141 165.419 105.037C165.341 105.063 165.212 105.037 165.161 105.166V105.166ZM165.857 105.115C165.728 105.115 165.702 105.141 165.702 105.218H165.857V105.115ZM166.45 105.166C166.424 105.166 166.424 105.192 166.424 105.192C166.424 105.218 166.424 105.218 166.45 105.218V105.166ZM167.687 105.166C167.662 105.166 167.636 105.192 167.636 105.192C167.636 105.218 167.662 105.218 167.687 105.218C167.713 105.218 167.713 105.218 167.713 105.192C167.713 105.192 167.713 105.166 167.687 105.166ZM172.586 104.909C172.56 104.909 172.534 104.934 172.534 104.96C172.534 104.986 172.56 105.012 172.586 105.012C172.612 105.012 172.612 104.986 172.612 104.96C172.612 104.934 172.612 104.909 172.586 104.909ZM180.733 122.569C180.733 122.544 180.759 122.492 180.836 122.492C180.836 122.415 180.424 122.157 180.424 121.925C180.424 121.486 180.14 121.512 180.14 120.146C180.14 119.965 180.192 119.682 180.579 119.166C180.604 119.166 180.785 118.599 181.146 118.547C181.146 118.315 181.893 118.367 181.893 117.774V117.8C181.842 117.8 181.3 117.258 181.197 117.258C180.553 116.897 180.424 116.407 180.424 116.304C180.346 115.866 180.089 115.969 180.089 114.86C180.089 113.597 180.579 113.417 180.579 113.236C180.579 112.849 180.991 112.978 181.223 112.437H181.197C181.197 112.411 182.357 112.128 182.357 111.818C182.357 111.586 181.919 111.406 181.3 110.787C181.146 110.606 181.171 110.374 181.017 110.297C181.017 110.039 180.475 109.756 180.475 108.338C180.475 108.26 180.733 106.92 180.733 106.92V106.971C180.785 106.971 180.888 106.249 181.558 105.811C181.739 105.811 181.61 105.295 182.1 105.295C182.1 105.321 182.125 105.321 182.125 105.321C182.203 105.321 182.203 104.831 182.718 104.831C183.853 104.212 185.967 104.29 185.812 104.29C186.379 104.29 187.205 104.78 187.565 104.78C187.669 104.78 187.798 104.754 187.823 104.754C187.875 104.754 187.823 104.805 187.849 104.78C187.849 104.728 187.926 104.573 188.571 103.929C188.571 103.955 188.597 103.955 188.597 103.955C188.726 103.955 188.855 103.13 190.118 103.13C190.402 103.13 190.84 103.233 190.995 103.233H190.943C190.943 103.258 191.355 103.413 191.433 103.516C191.794 103.516 192 104.883 192 104.831C192 105.012 191.82 105.269 191.845 105.347C191.355 105.837 190.866 106.094 190.556 106.094C190.53 106.094 190.273 105.991 190.221 105.991C190.221 105.966 190.221 105.914 190.169 105.914C190.144 105.914 190.092 105.94 190.015 105.94C189.783 105.94 189.396 105.837 189.035 105.089C188.88 105.037 188.803 104.986 188.803 104.986C188.726 104.986 188.597 105.141 188.468 105.192C189.087 106.172 189.525 106.43 189.628 106.997C189.628 107.332 189.86 106.92 189.86 108.08C189.86 109.369 189.628 109.266 189.628 109.704C189.396 110.22 189.628 109.756 189.241 110.503C189.19 110.813 188.674 110.916 188.674 111.199C188.674 111.225 188.262 111.509 188.158 111.509C188.133 111.509 188.107 111.638 188.081 111.638C188.081 111.638 188.055 111.638 188.055 111.612C188.055 111.741 187.256 112.05 187.256 112.076V112.05C187.23 112.05 186.921 112.463 185.348 112.463C185.013 112.463 184.317 112.36 183.466 112.36C183.363 112.36 182.796 112.411 182.667 112.411C182.641 112.385 182.615 112.385 182.59 112.385C182.409 112.385 182.125 112.875 181.842 112.875C181.197 113.185 181.068 113.726 181.068 114.061C181.068 114.628 181.507 115.015 182.177 115.015C182.822 115.015 183.518 114.989 183.93 114.989L183.956 114.938C184.523 114.938 185.941 114.809 188.107 114.809C189.061 114.809 189.577 114.757 189.937 115.092L189.912 115.118C189.912 115.247 190.556 115.35 190.556 115.763C190.556 115.866 191.227 116.227 191.227 117.258V117.232C191.227 117.232 191.304 118.341 191.355 118.341C191.355 118.418 191.252 118.676 191.252 118.779C191.252 119.089 191.304 119.785 191.046 120.249L190.891 120.79C190.814 120.842 190.788 120.971 190.737 120.997C190.221 122.105 189.937 122.183 189.731 122.44C189.731 122.518 189.783 122.518 189.834 122.569C189.757 122.621 189.654 122.672 189.628 122.698H189.654C189.654 122.724 188.623 123.317 188.623 123.394C188.623 123.42 187.514 123.73 187.462 123.987C187.05 123.987 187.72 124.194 185.58 124.194C184.317 124.194 184.368 124.09 183.595 124.09C183.337 124.09 182.564 123.987 181.558 123.24C181.352 123.24 181.017 122.569 180.733 122.569V122.569ZM185.09 124.09L185.168 124.065L185.09 124.09ZM185.039 124.065C185.039 124.039 185.013 124.039 184.987 124.039C184.987 124.039 184.961 124.039 184.961 124.065C184.961 124.09 184.987 124.09 184.987 124.09C185.013 124.09 185.039 124.09 185.039 124.065ZM185.735 124.065C185.735 124.039 185.735 124.039 185.709 124.039V124.09C185.735 124.09 185.735 124.09 185.735 124.065ZM184.626 123.936C184.601 123.936 184.575 123.962 184.575 123.987C184.575 124.013 184.601 124.039 184.626 124.039C184.652 124.039 184.652 124.013 184.652 123.987C184.652 123.962 184.652 123.936 184.626 123.936ZM184.523 123.884V123.936L184.626 123.884H184.523ZM183.131 122.518C183.131 122.647 183.647 123.008 183.801 123.085C183.827 123.059 183.827 123.059 183.853 123.059C184.059 123.059 184.446 123.523 185.219 123.523C186.534 123.523 186.74 123.523 186.74 123.497C186.74 123.472 186.689 123.446 186.689 123.394C186.689 123.343 186.844 123.24 187.746 123.085C187.772 123.137 187.798 123.137 187.823 123.137H187.798C187.798 123.059 188.726 122.569 188.726 122.492H188.468L188.442 122.518C188.7 122.544 189.551 122.028 190.479 119.707C190.479 118.65 190.324 118.522 190.324 118.393C189.422 117.722 189.164 117.619 188.03 117.619C187.72 117.619 182.718 117.645 182.718 118.032C182.718 119.398 182.59 119.372 182.59 120.249C182.59 120.558 182.667 121.873 182.95 122.157L183.26 122.492L183.131 122.518ZM188.674 123.111V123.188C188.829 123.188 188.829 123.111 188.855 123.111H188.674ZM189.628 122.286L189.576 122.311C189.602 122.311 189.628 122.286 189.628 122.286ZM189.783 122.079C189.757 122.079 189.731 122.105 189.731 122.131C189.731 122.131 189.757 122.157 189.783 122.157C189.809 122.157 189.809 122.131 189.809 122.131C189.809 122.105 189.809 122.079 189.783 122.079ZM189.68 121.925V122.079C189.68 122.105 189.705 122.105 189.705 122.105C189.731 122.105 189.757 122.028 189.783 121.976C189.783 121.976 189.757 121.951 189.68 121.925ZM180.527 114.19C180.501 114.19 180.475 114.216 180.475 114.242C180.475 114.242 180.501 114.267 180.527 114.267C180.553 114.267 180.553 114.242 180.553 114.242C180.553 114.216 180.553 114.19 180.527 114.19ZM180.579 113.881V113.984L180.63 113.881H180.579ZM183.363 110.245C183.621 110.245 183.183 111.87 184.729 111.87C186.483 111.87 186.225 111.586 186.534 111.277V111.328C186.56 111.328 186.715 110.245 186.74 110.245V108.286C186.74 108.157 186.792 107.925 186.792 107.899C186.792 107.745 186.74 107.435 186.74 107.306C186.74 107.126 186.818 106.61 186.844 106.61C186.715 106.223 187.205 104.934 184.987 104.934C183.698 104.934 183.621 105.759 183.518 105.94C183.518 105.94 183.44 106.687 183.363 106.868V107.719V108.08V110.245V110.245ZM183.93 104.78V104.805C183.956 104.831 184.136 104.831 184.136 104.831C184.188 104.831 184.214 104.805 184.265 104.728C184.265 104.573 184.188 104.599 184.059 104.599C184.059 104.625 184.085 104.599 184.085 104.676L183.93 104.78ZM190.402 103.465L190.479 103.568C190.556 103.568 190.556 103.516 190.556 103.439C190.505 103.439 190.402 103.439 190.402 103.465ZM190.066 103.387C190.041 103.387 190.041 103.413 190.041 103.439C190.041 103.439 190.041 103.465 190.066 103.465C190.092 103.465 190.092 103.439 190.092 103.439C190.092 103.413 190.092 103.387 190.066 103.387ZM190.195 103.362C190.169 103.362 190.144 103.387 190.144 103.387C190.144 103.413 190.169 103.439 190.195 103.439C190.195 103.439 190.221 103.413 190.221 103.387L190.195 103.362Z" fill="black"/>
</svg>
